<svg xmlns="http://www.w3.org/2000/svg" width="23.84" height="24.03" viewBox="0 0 23.84 24.03">
  <defs>
    <style>
      .cls-1 {
        fill-rule: evenodd;
      }
    </style>
  </defs>
  <path id="Forma_1" data-name="Forma 1" class="cls-1" d="M1225.24,2722.48h-18.83a2.71,2.71,0,0,0-2.51,2.53v18.95a2.508,2.508,0,0,0,2.51,2.53h10.04v-8.85l-2.86.21v-3.66h3.08v-2.7c0-3.13,1.86-4.84,4.59-4.84a22.925,22.925,0,0,1,2.75.15v3.27h-1.89a1.5,1.5,0,0,0-1.77,1.78v2.34h3.54l-0.46,3.66h-3.08l-0.13,8.64h5.02a2.323,2.323,0,0,0,2.51-2.53v-18.95A2.813,2.813,0,0,0,1225.24,2722.48Z" transform="translate(-1203.91 -2722.47)"/>
</svg>
