<svg xmlns="http://www.w3.org/2000/svg" width="131" height="28" viewBox="0 0 131 28">
  <defs>
    <style>
      .cls-1 {
        fill: #d3f08f;
        fill-rule: evenodd;
      }
    </style>
  </defs>
  <path id="GREBESHKI_copy_2" data-name="GREBESHKI copy 2" class="cls-1" d="M172.385,47.028a6.968,6.968,0,0,0,.581,2.978,5.89,5.89,0,0,0,1.549,2.05,6.212,6.212,0,0,0,2.111,1.277,6.883,6.883,0,0,0,4.764,0,6.637,6.637,0,0,0,2.149-1.277,6.132,6.132,0,0,0,1.511-2.05,6.968,6.968,0,0,0,.581-2.978V38.364h-7.088v3.481h3.137v5.183a2.622,2.622,0,0,1-.794,2.108,2.945,2.945,0,0,1-3.757,0,2.622,2.622,0,0,1-.794-2.108V32.484a2.622,2.622,0,0,1,.794-2.108,2.945,2.945,0,0,1,3.757,0,2.622,2.622,0,0,1,.794,2.108v1.393h3.951V32.484a7.035,7.035,0,0,0-.581-2.94,6.469,6.469,0,0,0-1.511-2.127,6.962,6.962,0,0,0-6.913-1.238,6.556,6.556,0,0,0-2.111,1.238,6.2,6.2,0,0,0-1.549,2.127,7.035,7.035,0,0,0-.581,2.94V47.028ZM198.012,29.7a3.145,3.145,0,0,1,2.788,1.083,3.659,3.659,0,0,1,.465,1.373,14.611,14.611,0,0,1,0,3.675,3.777,3.777,0,0,1-.426,1.335,2.259,2.259,0,0,1-.968.832,3.984,3.984,0,0,1-1.666.29h-6.6V29.7h6.41ZM191.6,53.527V41.768h6.72L202,53.527h4.183l-4.26-12.571a5.858,5.858,0,0,0,2.653-2.746,10.185,10.185,0,0,0,.755-4.139q0-8.084-6.972-8.084H187.651V53.527H191.6Zm31.876,0V49.581H211.684V41.5h10.787V37.784H211.684V29.7h11.794V25.986H207.733V53.527h15.745Zm7.165,0q3.873,0,5.635-1.934a7.989,7.989,0,0,0,1.763-5.57V44.475a7.667,7.667,0,0,0-.659-3.481,4.284,4.284,0,0,0-2.053-1.934,5.437,5.437,0,0,0,2.015-1.857,4.557,4.557,0,0,0,.522-1.354,8.719,8.719,0,0,0,.175-1.9V32.949a9.261,9.261,0,0,0-.368-2.611,5.8,5.8,0,0,0-1.22-2.224,6.114,6.114,0,0,0-2.189-1.547,8.094,8.094,0,0,0-3.234-.58h-5.771V53.527h5.384Zm0.31-12.765a5,5,0,0,1,1.743.251,2.231,2.231,0,0,1,1.045.793,3.3,3.3,0,0,1,.465,1.315,12.329,12.329,0,0,1,.117,1.818q0,1.006-.078,1.857a3.643,3.643,0,0,1-.426,1.47,2.4,2.4,0,0,1-1.026.967,4.172,4.172,0,0,1-1.879.348h-1.7V40.762h1.743ZM230.837,29.7a3.362,3.362,0,0,1,2.73.928,4.343,4.343,0,0,1,.756,2.785,5.091,5.091,0,0,1-.678,2.882,3.02,3.02,0,0,1-2.653.986H229.21V29.7h1.627Zm15.7,23.827V49.581h-2.983V41.5h1.976V37.784h-1.976V29.7h2.983V25.986H239.6V53.527h6.933Zm15.253-21.545a5.972,5.972,0,0,0-1.782-4.255A6.939,6.939,0,0,0,257.9,26.3a6.559,6.559,0,0,0-2.691-.542,6.926,6.926,0,0,0-3,.6,5.862,5.862,0,0,0-2.072,1.605,6.684,6.684,0,0,0-1.278,2.4,9.962,9.962,0,0,0-.426,2.94,9.5,9.5,0,0,0,.871,4.313,6.261,6.261,0,0,0,3.428,2.766l2.827,1.16a9.5,9.5,0,0,1,1.182.58,2.191,2.191,0,0,1,.716.7,3.07,3.07,0,0,1,.31,1.122,16.848,16.848,0,0,1,.077,1.779q0,0.928-.058,1.683a3.034,3.034,0,0,1-.368,1.3,2.086,2.086,0,0,1-.871.832,3.475,3.475,0,0,1-1.569.29,2.49,2.49,0,0,1-2.149-.87,3.22,3.22,0,0,1-.639-1.953V45.752h-3.951v1.47a6.268,6.268,0,0,0,.523,2.572,6.758,6.758,0,0,0,1.414,2.069,6.322,6.322,0,0,0,2.13,1.392,7.047,7.047,0,0,0,2.672.5,7.531,7.531,0,0,0,3.215-.619,5.568,5.568,0,0,0,2.13-1.7A6.8,6.8,0,0,0,261.44,48.9a14.124,14.124,0,0,0,.349-3.23,20.885,20.885,0,0,0-.155-2.688,7.306,7.306,0,0,0-.581-2.108,5.11,5.11,0,0,0-1.278-1.567,7.514,7.514,0,0,0-2.13-1.18l-3.021-1.2a6.137,6.137,0,0,1-1.22-.619,2.147,2.147,0,0,1-.678-0.735,2.57,2.57,0,0,1-.291-0.967,13.266,13.266,0,0,1-.058-1.354,7.394,7.394,0,0,1,.117-1.334,3.254,3.254,0,0,1,.426-1.141,2.592,2.592,0,0,1,.813-0.774,2.488,2.488,0,0,1,1.317-.309,2.363,2.363,0,0,1,2.149.986,4.209,4.209,0,0,1,.639,2.34v0.889h3.951V31.982Zm5.428,21.545V41.265h10.864V53.527h3.951V25.986h-3.951v11.8H267.217v-11.8h-3.95V53.527h3.95Zm20.328,0V45.288l2.13-3.984,4.493,12.223h4.182L291.96,37.01l5.383-11.024h-3.95l-5.771,12.571h-0.077V25.986h-3.951V53.527h3.951Zm15.84,0V25.986h-3.95V53.527h3.95Z" transform="translate(-172.375 -25.75)"/>
</svg>
