<svg xmlns="http://www.w3.org/2000/svg" width="32.63" height="17.69" viewBox="0 0 32.63 17.69">
  <defs>
    <style>
      .cls-1 {
        fill-rule: evenodd;
      }
    </style>
  </defs>
  <path id="Forma_1" data-name="Forma 1" class="cls-1" d="M1185.21,2741.83c-0.04-.08-0.08-0.15-0.11-0.2a16.53,16.53,0,0,0-3.24-3.57l-0.04-.04-0.02-.01-0.01-.02h-0.02c-0.72-.65-1.18-1.1-1.38-1.32a1.185,1.185,0,0,1-.23-1.31,11.427,11.427,0,0,1,1.53-2.11c0.46-.57.83-1.03,1.1-1.38,1.96-2.47,2.81-4.06,2.55-4.74l-0.1-.17a1.1,1.1,0,0,0-.53-0.26,2.718,2.718,0,0,0-1.09-.04l-4.89.03a0.661,0.661,0,0,0-.34.01c-0.15.03-.22,0.05-0.22,0.05l-0.09.04-0.06.05a0.566,0.566,0,0,0-.19.17,1.1,1.1,0,0,0-.17.28,25.625,25.625,0,0,1-1.82,3.63c-0.42.67-.8,1.25-1.15,1.74a7.959,7.959,0,0,1-.89,1.08,6.612,6.612,0,0,1-.64.55,0.617,0.617,0,0,1-.44.18c-0.11-.02-0.2-0.04-0.29-0.06a1.15,1.15,0,0,1-.39-0.4,1.675,1.675,0,0,1-.19-0.63c-0.03-.25-0.05-0.47-0.06-0.65s0-.44.01-0.78,0.02-.56.02-0.67c0-.41,0-0.86.02-1.34s0.03-.86.04-1.13c0.01-.29.02-0.58,0.02-0.89a3.532,3.532,0,0,0-.06-0.74,2.383,2.383,0,0,0-.18-0.51,0.831,0.831,0,0,0-.35-0.39,1.925,1.925,0,0,0-.56-0.22,11.874,11.874,0,0,0-2.3-.21,11.693,11.693,0,0,0-4.06.39,2.486,2.486,0,0,0-.65.48c-0.2.24-.23,0.37-0.08,0.39a2.137,2.137,0,0,1,1.44.69l0.11,0.2a3.1,3.1,0,0,1,.23.74,8.016,8.016,0,0,1,.16,1.18,13.53,13.53,0,0,1,0,2.02c-0.06.56-.11,0.99-0.16,1.31a2.781,2.781,0,0,1-.23.75,2.6,2.6,0,0,1-.21.36,0.294,0.294,0,0,1-.08.08,1.435,1.435,0,0,1-.46.08,1.056,1.056,0,0,1-.58-0.23,3.5,3.5,0,0,1-.7-0.62,7.97,7.97,0,0,1-.83-1.1c-0.3-.48-0.62-1.04-0.95-1.68l-0.27-.47c-0.17-.3-0.4-0.74-0.7-1.32s-0.55-1.13-.78-1.67a1.051,1.051,0,0,0-.41-0.51l-0.08-.05a1.1,1.1,0,0,0-.27-0.14,1.8,1.8,0,0,0-.4-0.1l-4.65.03a1.235,1.235,0,0,0-.97.3l-0.07.1a0.539,0.539,0,0,0-.05.26,1.488,1.488,0,0,0,.1.44c0.68,1.51,1.42,2.98,2.22,4.39s1.49,2.54,2.08,3.4,1.19,1.68,1.8,2.44,1.02,1.26,1.22,1.47,0.35,0.38.47,0.49l0.42,0.38a9.426,9.426,0,0,0,1.2.93,19.706,19.706,0,0,0,1.75,1.07,9.688,9.688,0,0,0,2.23.85,8.24,8.24,0,0,0,2.48.27h1.96a1.375,1.375,0,0,0,.9-0.36l0.06-.08a0.855,0.855,0,0,0,.13-0.3,1.51,1.51,0,0,0,.06-0.44,5.386,5.386,0,0,1,.11-1.25,3.341,3.341,0,0,1,.29-0.84,2.036,2.036,0,0,1,.37-0.48,1.244,1.244,0,0,1,.29-0.23,0.687,0.687,0,0,1,.13-0.06,1.152,1.152,0,0,1,.96.25,6.058,6.058,0,0,1,1.04.94c0.32,0.37.71,0.79,1.16,1.25a7.464,7.464,0,0,0,1.19,1.03l0.34,0.2a3.923,3.923,0,0,0,.88.35,1.928,1.928,0,0,0,.96.08l4.34-.06a2.123,2.123,0,0,0,1.01-.2,0.775,0.775,0,0,0,.42-0.45,1.122,1.122,0,0,0,.01-0.55A1.86,1.86,0,0,0,1185.21,2741.83Z" transform="translate(-1152.75 -2725.84)"/>
</svg>
