<svg width="60" height="60" viewBox="0 0 60 60" fill="none" xmlns="http://www.w3.org/2000/svg">
<g clip-path="url(#clip0_228_361)">
<path d="M36.878 23.9496C39.1756 21.6356 39.1833 17.8916 36.8951 15.587C34.607 13.2825 30.8895 13.2902 28.5919 15.6042L11.4101 32.9085C9.11248 35.2224 9.10481 38.9665 11.393 41.271C13.6811 43.5756 17.3986 43.5679 19.6962 41.2539L36.878 23.9496Z" fill="#F8BB2D"/>
<path d="M21.2139 38.6009C20.3679 41.7581 17.1438 43.6373 14.0125 42.7982C10.8812 41.9592 9.02857 38.7197 9.87452 35.5626C10.7205 32.4054 13.9447 30.5262 17.0759 31.3653C20.2072 32.2043 22.0598 35.4438 21.2139 38.6009Z" fill="#3BA757"/>
<path d="M27.0775 21.3236C26.2447 18.1709 28.1101 14.9246 31.244 14.0729C34.3778 13.2212 37.5934 15.0865 38.4262 18.2393L44.654 41.8162C45.4867 44.969 43.6214 48.2152 40.4875 49.0669C37.3536 49.9187 34.138 48.0533 33.3052 44.9005L27.0775 21.3236Z" fill="#4689F2"/>
</g>
<defs>
<clipPath id="clip0_228_361">
<rect width="48" height="48" fill="white" transform="translate(13.0294 0.606079) rotate(15)"/>
</clipPath>
</defs>
</svg>
