<svg width="80" height="80" viewBox="0 0 80 80" fill="none" xmlns="http://www.w3.org/2000/svg">
<path d="M52.3593 27.6406C59.1953 34.4766 59.1953 45.5508 52.3593 52.3867C48.9413 55.8047 48.9413 61.3555 52.3593 64.7461C55.7773 68.1641 61.3281 68.1641 64.746 64.7461C78.4179 51.0742 78.4179 28.9258 64.746 15.2539L52.3593 27.6406Z" fill="#EA4335"/>
<path d="M64.7188 15.2539C51.0469 1.58203 28.9258 1.58203 15.2539 15.2539C1.58203 28.9258 1.58203 51.0742 15.2539 64.7461L27.6406 52.3867C20.8047 45.5508 20.8047 34.4766 27.6406 27.6406C34.4766 20.8047 45.5508 20.8047 52.3867 27.6406C55.8047 31.0586 61.3555 31.0586 64.7734 27.6406C68.1367 24.2227 68.1367 18.6719 64.7188 15.2539Z" fill="url(#paint0_linear_115_97)"/>
<path d="M64.7188 64.7462L52.3321 52.3868C45.4962 59.2228 34.4219 59.2228 27.586 52.3868L15.1993 64.7462C28.9258 78.4181 51.0469 78.4181 64.7188 64.7462Z" fill="#FBBC04"/>
<path d="M52.3593 52.3868C55.7773 48.9689 61.3007 48.9689 64.7187 52.3868C68.1367 55.8048 68.1367 61.3556 64.7187 64.7736C61.3007 68.1915 55.7773 68.1915 52.3593 64.7736C48.9413 61.3556 48.9413 55.8048 52.3593 52.3868Z" fill="#EA4335"/>
<path d="M15.2539 52.3868C18.6719 48.9689 24.1953 48.9689 27.6133 52.3868C31.0312 55.8048 31.0312 61.3556 27.6133 64.7736C24.1953 68.1915 18.6719 68.1915 15.2539 64.7736C11.8359 61.3556 11.8359 55.8048 15.2539 52.3868Z" fill="#34A853"/>
<defs>
<linearGradient id="paint0_linear_115_97" x1="5" y1="34.873" x2="67.2887" y2="34.873" gradientUnits="userSpaceOnUse">
<stop stop-color="#246FDB"/>
<stop offset="0.0552" stop-color="#2973DF"/>
<stop offset="0.2781" stop-color="#377DEB"/>
<stop offset="0.5491" stop-color="#3F83F2"/>
<stop offset="1" stop-color="#4285F4"/>
</linearGradient>
</defs>
</svg>
