<svg width="78" height="78" viewBox="0 0 78 78" fill="none" xmlns="http://www.w3.org/2000/svg">
<circle cx="39" cy="39" r="31.5" transform="rotate(-4.34542 39 39)" fill="url(#paint0_linear_115_73)"/>
<path d="M51.4271 47.7169L52.1486 38.7457L43.4205 39.4089L42.9835 33.6585C42.7992 31.2326 43.8364 28.774 47.7457 28.477L51.7164 28.1752L51.1429 20.6278C51.1429 20.6278 47.4954 20.3025 44.0533 20.5641C36.8618 21.1105 32.4884 25.7143 33.0724 33.3995L33.5858 40.1562L25.5951 40.7634L26.2688 49.6286L34.2595 49.0214L35.8881 70.4537C37.5109 70.5775 39.1617 70.5785 40.8336 70.4514C42.5055 70.3244 44.1371 70.0739 45.7227 69.7064L44.0941 48.2741L51.4271 47.7169Z" fill="white"/>
<defs>
<linearGradient id="paint0_linear_115_73" x1="39" y1="7.50002" x2="39" y2="70.3132" gradientUnits="userSpaceOnUse">
<stop stop-color="#18ACFE"/>
<stop offset="1" stop-color="#0163E0"/>
</linearGradient>
</defs>
</svg>
