<svg width="40" height="40" viewBox="0 0 40 40" fill="none" xmlns="http://www.w3.org/2000/svg">
<path d="M10.5637 24.7409C10.759 23.1236 11.4224 22.218 12.6724 21.2897C14.461 20.0325 16.6952 20.7436 16.6952 20.7436V16.5247C17.2383 16.5108 17.7817 16.543 18.3189 16.6209V22.0503C18.3189 22.0503 16.0854 21.3391 14.2968 22.597C13.0475 23.5246 12.3828 24.4308 12.1881 26.0482C12.182 26.9265 12.3468 28.0745 13.1058 29.0671C12.9182 28.9709 12.7269 28.8613 12.532 28.7382C10.8601 27.6155 10.5556 25.9312 10.5637 24.7409ZM27.5439 8.72385C26.3136 7.3756 25.8483 6.01436 25.6801 5.05811H27.2279C27.2279 5.05811 26.9193 7.56542 29.1684 10.0311L29.1996 10.0643C28.5934 9.68299 28.0375 9.23292 27.5439 8.72385ZM35.0001 12.5463V17.8664C35.0001 17.8664 33.025 17.7891 31.5633 17.4172C29.5224 16.8972 28.2107 16.0995 28.2107 16.0995C28.2107 16.0995 27.3045 15.5307 27.2313 15.4911V26.4773C27.2313 27.089 27.0637 28.6166 26.553 29.8908C25.8863 31.5576 24.8574 32.6516 24.6681 32.8752C24.6681 32.8752 23.4167 34.3542 21.209 35.3501C19.219 36.2485 17.4718 36.2257 16.9495 36.2485C16.9495 36.2485 13.9292 36.3681 11.2114 34.6018C10.6237 34.2125 10.0751 33.7716 9.57275 33.2848L9.58632 33.2945C12.3048 35.0608 15.3244 34.9412 15.3244 34.9412C15.8473 34.9184 17.5945 34.9412 19.5839 34.0428C21.7896 33.0469 23.043 31.568 23.043 31.568C23.2302 31.3443 24.2639 30.2503 24.9279 28.5828C25.4373 27.3094 25.6062 25.781 25.6062 25.1693V14.1844C25.6794 14.2247 26.5849 14.7936 26.5849 14.7936C26.5849 14.7936 27.8973 15.5918 29.9382 16.1112C31.4005 16.4831 33.3749 16.5604 33.3749 16.5604V12.3915C34.0505 12.543 34.6263 12.584 35.0001 12.5463Z" fill="#EE1D52"/>
<path d="M33.3755 12.3915V16.5591C33.3755 16.5591 31.401 16.4818 29.9387 16.1099C27.8978 15.5899 26.5854 14.7923 26.5854 14.7923C26.5854 14.7923 25.6799 14.2234 25.6067 14.1831V25.1706C25.6067 25.7823 25.4391 27.3107 24.9284 28.5841C24.2617 30.2516 23.2328 31.3456 23.0435 31.5693C23.0435 31.5693 21.7915 33.0482 19.5844 34.0441C17.5951 34.9425 15.8479 34.9197 15.3249 34.9425C15.3249 34.9425 12.3053 35.0621 9.58683 33.2958L9.57327 33.2861C9.28625 33.0082 9.01609 32.7147 8.7641 32.4072C7.8966 31.3495 7.36485 30.0988 7.23123 29.7419C7.231 29.7404 7.231 29.7389 7.23123 29.7374C7.01622 29.1172 6.5645 27.6279 6.62622 26.1854C6.73542 23.6404 7.63073 22.0782 7.86744 21.6869C8.49436 20.6197 9.30974 19.6649 10.2773 18.8649C11.1311 18.1746 12.0989 17.6254 13.1409 17.2398C14.2674 16.787 15.4736 16.5443 16.695 16.5247V20.7436C16.695 20.7436 14.4608 20.0351 12.6729 21.2897C11.4229 22.218 10.7595 23.1236 10.5642 24.7409C10.5561 25.9312 10.8606 27.6155 12.5312 28.7389C12.726 28.8624 12.9173 28.972 13.105 29.0678C13.3968 29.4472 13.752 29.7777 14.1563 30.0461C15.7882 31.0791 17.1555 31.1513 18.9041 30.4804C20.07 30.0318 20.9477 29.021 21.3547 27.9009C21.6104 27.2014 21.607 26.4974 21.607 25.7693V5.05811H25.6765C25.8447 6.01436 26.31 7.3756 27.5404 8.72385C28.0339 9.23292 28.5898 9.683 29.196 10.0643C29.3751 10.2496 30.2907 11.1655 31.4662 11.7278C32.0739 12.0185 32.7146 12.2412 33.3755 12.3915Z" fill="black"/>
<path d="M5.61157 28.446V28.4493L5.71255 28.723C5.70095 28.6911 5.66343 28.5943 5.61157 28.446Z" fill="#69C9D0"/>
<path d="M13.141 17.2396C12.099 17.6252 11.1312 18.1744 10.2774 18.8647C9.30954 19.6665 8.49436 20.6233 7.86822 21.6925C7.63151 22.0826 6.73621 23.646 6.62701 26.191C6.56529 27.6335 7.01701 29.1228 7.23202 29.743C7.23178 29.7445 7.23178 29.746 7.23202 29.7476C7.36767 30.1012 7.89739 31.3519 8.76488 32.4128C9.01687 32.7204 9.28704 33.0138 9.57405 33.2917C8.65446 32.6822 7.83433 31.9452 7.14045 31.1049C6.28042 30.0563 5.75002 28.8186 5.61165 28.4533C5.61149 28.4507 5.61149 28.4481 5.61165 28.4455V28.4409C5.39597 27.8214 4.94289 26.3314 5.00597 24.887C5.11517 22.342 6.01047 20.7798 6.24718 20.3885C6.87313 19.3192 7.68834 18.3623 8.65636 17.5607C9.51 16.8702 10.4778 16.3209 11.52 15.9355C12.17 15.677 12.8472 15.4863 13.5398 15.3667C14.5837 15.1921 15.6497 15.1769 16.6985 15.3219V16.5245C15.476 16.5437 14.2685 16.7864 13.141 17.2396Z" fill="#69C9D0"/>
<path d="M25.68 5.05794H21.6105V25.7698C21.6105 26.4979 21.6105 27.2 21.3582 27.9014C20.9471 29.0208 20.0729 30.0317 18.9076 30.4802C17.1584 31.1537 15.791 31.0789 14.1598 30.046C13.7549 29.7788 13.3987 29.4493 13.1058 29.0709C14.4955 29.7814 15.7395 29.7691 17.2805 29.1762C18.445 28.7276 19.3207 27.7168 19.7303 26.5967C19.9867 25.8972 19.9833 25.1932 19.9833 24.4658V3.75H25.6027C25.6027 3.75 25.5396 4.26486 25.68 5.05794ZM33.3756 11.2388V12.3914C32.7159 12.2408 32.0764 12.0181 31.4697 11.7277C30.2943 11.1653 29.3786 10.2494 29.1995 10.0641C29.4073 10.1949 29.6229 10.3138 29.8452 10.4204C31.2743 11.1042 32.6817 11.3084 33.3756 11.2388Z" fill="#69C9D0"/>
</svg>
