<svg width="200" height="200" viewBox="0 0 200 200" fill="none" xmlns="http://www.w3.org/2000/svg">
<rect width="200" height="200" rx="100" fill="white"/>
<path d="M112.359 87.6406C119.195 94.4766 119.195 105.551 112.359 112.387C108.941 115.805 108.941 121.355 112.359 124.746C115.777 128.164 121.328 128.164 124.746 124.746C138.418 111.074 138.418 88.9258 124.746 75.2539L112.359 87.6406Z" fill="#EA4335"/>
<path d="M124.719 75.2539C111.047 61.582 88.9258 61.582 75.2539 75.2539C61.582 88.9258 61.582 111.074 75.2539 124.746L87.6406 112.387C80.8047 105.551 80.8047 94.4766 87.6406 87.6406C94.4766 80.8047 105.551 80.8047 112.387 87.6406C115.805 91.0586 121.355 91.0586 124.773 87.6406C128.137 84.2227 128.137 78.6719 124.719 75.2539Z" fill="url(#paint0_linear_115_96)"/>
<path d="M124.719 124.746L112.332 112.387C105.496 119.223 94.4219 119.223 87.586 112.387L75.1993 124.746C88.9258 138.418 111.047 138.418 124.719 124.746Z" fill="#FBBC04"/>
<path d="M112.359 112.387C115.777 108.969 121.301 108.969 124.719 112.387C128.137 115.805 128.137 121.356 124.719 124.774C121.301 128.192 115.777 128.192 112.359 124.774C108.941 121.356 108.941 115.805 112.359 112.387Z" fill="#EA4335"/>
<path d="M75.2539 112.387C78.6719 108.969 84.1953 108.969 87.6133 112.387C91.0312 115.805 91.0312 121.356 87.6133 124.774C84.1953 128.192 78.6719 128.192 75.2539 124.774C71.8359 121.356 71.8359 115.805 75.2539 112.387Z" fill="#34A853"/>
<defs>
<linearGradient id="paint0_linear_115_96" x1="65" y1="94.873" x2="127.289" y2="94.873" gradientUnits="userSpaceOnUse">
<stop stop-color="#246FDB"/>
<stop offset="0.0552" stop-color="#2973DF"/>
<stop offset="0.2781" stop-color="#377DEB"/>
<stop offset="0.5491" stop-color="#3F83F2"/>
<stop offset="1" stop-color="#4285F4"/>
</linearGradient>
</defs>
</svg>
