<svg width="140" height="140" viewBox="0 0 140 140" fill="none" xmlns="http://www.w3.org/2000/svg">
<rect width="140" height="140" rx="70" fill="white"/>
<g clip-path="url(#clip0_115_78)">
<path d="M78.0244 62.9412C80.7049 60.2416 80.7139 55.8735 78.0444 53.1849C75.3749 50.4963 71.0378 50.5052 68.3572 53.2049L48.3118 73.3932C45.6313 76.0929 45.6223 80.4609 48.2918 83.1495C50.9613 85.8382 55.2984 85.8292 57.979 83.1296L78.0244 62.9412Z" fill="#F8BB2D"/>
<path d="M59.7496 80.0343C58.7627 83.7176 55.0011 85.91 51.3479 84.9312C47.6948 83.9523 45.5334 80.1729 46.5203 76.4895C47.5073 72.8062 51.2688 70.6138 54.922 71.5927C58.5751 72.5716 60.7365 76.351 59.7496 80.0343Z" fill="#3BA757"/>
<path d="M66.5904 59.8775C65.6188 56.1993 67.7951 52.412 71.4513 51.4183C75.1074 50.4246 78.859 52.6009 79.8306 56.2792L87.0963 83.7855C88.0678 87.4637 85.8916 91.2511 82.2354 92.2447C78.5792 93.2384 74.8277 91.0621 73.8561 87.3839L66.5904 59.8775Z" fill="#4689F2"/>
</g>
<defs>
<clipPath id="clip0_115_78">
<rect width="56" height="56" fill="white" transform="translate(50.201 35.707) rotate(15)"/>
</clipPath>
</defs>
</svg>
