<svg width="80" height="80" viewBox="0 0 80 80" fill="none" xmlns="http://www.w3.org/2000/svg">
<rect width="80" height="80" rx="40" fill="white"/>
<path d="M30.5637 44.7409C30.759 43.1236 31.4224 42.218 32.6724 41.2897C34.461 40.0325 36.6952 40.7436 36.6952 40.7436V36.5247C37.2383 36.5108 37.7817 36.543 38.3189 36.6209V42.0503C38.3189 42.0503 36.0854 41.3391 34.2968 42.597C33.0475 43.5246 32.3828 44.4308 32.1881 46.0482C32.182 46.9265 32.3468 48.0745 33.1058 49.0671C32.9182 48.9709 32.7269 48.8613 32.532 48.7382C30.8601 47.6155 30.5556 45.9312 30.5637 44.7409ZM47.5439 28.7238C46.3136 27.3756 45.8483 26.0144 45.6801 25.0581H47.2279C47.2279 25.0581 46.9193 27.5654 49.1684 30.0311L49.1996 30.0643C48.5934 29.683 48.0375 29.2329 47.5439 28.7238ZM55.0001 32.5463V37.8664C55.0001 37.8664 53.025 37.7891 51.5633 37.4172C49.5224 36.8972 48.2107 36.0995 48.2107 36.0995C48.2107 36.0995 47.3045 35.5307 47.2313 35.4911V46.4773C47.2313 47.089 47.0637 48.6166 46.553 49.8908C45.8863 51.5576 44.8574 52.6516 44.6681 52.8752C44.6681 52.8752 43.4167 54.3542 41.209 55.3501C39.219 56.2485 37.4718 56.2257 36.9495 56.2485C36.9495 56.2485 33.9292 56.3681 31.2114 54.6018C30.6237 54.2125 30.0751 53.7716 29.5728 53.2848L29.5863 53.2945C32.3048 55.0608 35.3244 54.9412 35.3244 54.9412C35.8473 54.9184 37.5945 54.9412 39.5839 54.0428C41.7896 53.0469 43.043 51.568 43.043 51.568C43.2302 51.3443 44.2639 50.2503 44.9279 48.5828C45.4373 47.3094 45.6062 45.781 45.6062 45.1693V34.1844C45.6794 34.2247 46.5849 34.7936 46.5849 34.7936C46.5849 34.7936 47.8973 35.5918 49.9382 36.1112C51.4005 36.4831 53.3749 36.5604 53.3749 36.5604V32.3915C54.0505 32.543 54.6263 32.584 55.0001 32.5463Z" fill="#EE1D52"/>
<path d="M53.3755 32.3915V36.5591C53.3755 36.5591 51.401 36.4818 49.9387 36.1099C47.8978 35.5899 46.5854 34.7923 46.5854 34.7923C46.5854 34.7923 45.6799 34.2234 45.6067 34.1831V45.1706C45.6067 45.7823 45.4391 47.3107 44.9284 48.5841C44.2617 50.2516 43.2328 51.3456 43.0435 51.5693C43.0435 51.5693 41.7915 53.0482 39.5844 54.0441C37.5951 54.9425 35.8479 54.9197 35.3249 54.9425C35.3249 54.9425 32.3053 55.0621 29.5868 53.2958L29.5733 53.2861C29.2863 53.0082 29.0161 52.7147 28.7641 52.4072C27.8966 51.3495 27.3648 50.0988 27.2312 49.7419C27.231 49.7404 27.231 49.7389 27.2312 49.7374C27.0162 49.1172 26.5645 47.6279 26.6262 46.1854C26.7354 43.6404 27.6307 42.0782 27.8674 41.6869C28.4944 40.6197 29.3097 39.6649 30.2773 38.8649C31.1311 38.1746 32.0989 37.6254 33.1409 37.2398C34.2674 36.787 35.4736 36.5443 36.695 36.5247V40.7436C36.695 40.7436 34.4608 40.0351 32.6729 41.2897C31.4229 42.218 30.7595 43.1236 30.5642 44.7409C30.5561 45.9312 30.8606 47.6155 32.5312 48.7389C32.726 48.8624 32.9173 48.972 33.105 49.0678C33.3968 49.4472 33.752 49.7777 34.1563 50.0461C35.7882 51.0791 37.1555 51.1513 38.9041 50.4804C40.07 50.0318 40.9477 49.021 41.3547 47.9009C41.6104 47.2014 41.607 46.4974 41.607 45.7693V25.0581H45.6765C45.8447 26.0144 46.31 27.3756 47.5404 28.7238C48.0339 29.2329 48.5898 29.683 49.196 30.0643C49.3751 30.2496 50.2907 31.1655 51.4662 31.7278C52.0739 32.0185 52.7146 32.2412 53.3755 32.3915Z" fill="black"/>
<path d="M25.6116 48.446V48.4493L25.7126 48.723C25.701 48.6911 25.6634 48.5943 25.6116 48.446Z" fill="#69C9D0"/>
<path d="M33.141 37.2396C32.099 37.6252 31.1312 38.1744 30.2774 38.8647C29.3095 39.6665 28.4944 40.6233 27.8682 41.6925C27.6315 42.0826 26.7362 43.646 26.627 46.191C26.5653 47.6335 27.017 49.1228 27.232 49.743C27.2318 49.7445 27.2318 49.746 27.232 49.7476C27.3677 50.1012 27.8974 51.3519 28.7649 52.4128C29.0169 52.7204 29.287 53.0138 29.574 53.2917C28.6545 52.6822 27.8343 51.9452 27.1405 51.1049C26.2804 50.0563 25.75 48.8186 25.6117 48.4533C25.6115 48.4507 25.6115 48.4481 25.6117 48.4455V48.4409C25.396 47.8214 24.9429 46.3314 25.006 44.887C25.1152 42.342 26.0105 40.7798 26.2472 40.3885C26.8731 39.3192 27.6883 38.3623 28.6564 37.5607C29.51 36.8702 30.4778 36.3209 31.52 35.9355C32.17 35.677 32.8472 35.4863 33.5398 35.3667C34.5837 35.1921 35.6497 35.1769 36.6985 35.3219V36.5245C35.476 36.5437 34.2685 36.7864 33.141 37.2396Z" fill="#69C9D0"/>
<path d="M45.68 25.0579H41.6105V45.7698C41.6105 46.4979 41.6105 47.2 41.3582 47.9014C40.9471 49.0208 40.0729 50.0317 38.9076 50.4802C37.1584 51.1537 35.791 51.0789 34.1598 50.046C33.7549 49.7788 33.3987 49.4493 33.1058 49.0709C34.4955 49.7814 35.7395 49.7691 37.2805 49.1762C38.445 48.7276 39.3207 47.7168 39.7303 46.5967C39.9867 45.8972 39.9833 45.1932 39.9833 44.4658V23.75H45.6027C45.6027 23.75 45.5396 24.2649 45.68 25.0579ZM53.3756 31.2388V32.3914C52.7159 32.2408 52.0764 32.0181 51.4697 31.7277C50.2943 31.1653 49.3786 30.2494 49.1995 30.0641C49.4073 30.1949 49.6229 30.3138 49.8452 30.4204C51.2743 31.1042 52.6817 31.3084 53.3756 31.2388Z" fill="#69C9D0"/>
</svg>
