<svg width="122" height="122" viewBox="0 0 122 122" fill="none" xmlns="http://www.w3.org/2000/svg">
<g filter="url(#filter0_b_115_80)">
<rect width="122" height="122" rx="61" fill="#596366"/>
<path d="M75.9012 56.7491C75.6654 56.8916 71.5957 58.5966 71.0364 63.3804C70.3894 68.9137 75.019 71.4393 75.1587 71.5048C75.1224 71.6215 74.0735 74.0954 71.9786 76.4962C70.1142 78.6064 68.1794 80.7047 65.6439 80.4082C63.1084 80.1118 62.6281 78.5627 59.7011 78.2205C56.8487 77.887 55.6567 79.2897 53.3375 79.0185C51.0183 78.7474 49.6485 76.4329 48.0931 73.6053C46.2963 70.2884 45.1118 65.3233 45.6401 60.8042C46.4876 53.5558 51.65 50.2626 56.2885 50.8049C58.7531 51.0931 60.6183 52.9515 62.1657 53.1324C63.6385 53.3046 66.1359 51.858 68.9398 52.1858C70.0025 52.3101 73.8093 52.8534 75.9012 56.7491ZM67.9675 48.9615C69.288 47.7213 70.3315 45.9081 70.5547 43.9991C70.5856 43.7343 70.5946 43.4632 70.5714 43.2413C68.6765 43.0916 66.2932 44.0148 64.7562 45.4263C63.5523 46.5102 62.3373 48.3033 62.111 50.2384C62.077 50.5293 62.0915 50.8258 62.103 50.9216C62.2197 50.9579 62.4105 51.0067 62.6044 51.0293C64.2972 51.2273 66.5587 50.3427 67.9675 48.9615Z" fill="white"/>
</g>
<defs>
<filter id="filter0_b_115_80" x="-20" y="-20" width="162" height="162" filterUnits="userSpaceOnUse" color-interpolation-filters="sRGB">
<feFlood flood-opacity="0" result="BackgroundImageFix"/>
<feGaussianBlur in="BackgroundImage" stdDeviation="10"/>
<feComposite in2="SourceAlpha" operator="in" result="effect1_backgroundBlur_115_80"/>
<feBlend mode="normal" in="SourceGraphic" in2="effect1_backgroundBlur_115_80" result="shape"/>
</filter>
</defs>
</svg>
