<svg width="140" height="140" viewBox="0 0 140 140" fill="none" xmlns="http://www.w3.org/2000/svg">
<g filter="url(#filter0_b_115_76)">
<rect width="140" height="140" rx="70" fill="#596366"/>
<path fill-rule="evenodd" clip-rule="evenodd" d="M63.4072 42.7872C48.378 46.4283 39.1461 61.5636 42.7873 76.5928C46.4284 91.622 61.5636 100.854 76.5928 97.2127C91.622 93.5716 100.854 78.4363 97.2128 63.4071C93.5717 48.3779 78.4364 39.1461 63.4072 42.7872ZM60.4568 59.3313C60.8969 61.1479 59.6791 63.0019 57.7368 63.4725C55.7946 63.943 53.8633 62.8519 53.4232 61.0354C52.9831 59.2188 54.2008 57.3647 56.1431 56.8942C58.0854 56.4236 60.0167 57.5148 60.4568 59.3313ZM55.2867 66.6256L61.2983 65.1692L65.7117 83.386L59.7001 84.8425L55.2867 66.6256ZM64.9655 64.2808L70.9771 62.8243L71.5433 65.1615C72.2414 63.6333 73.835 61.7451 76.9603 60.9879C82.2231 59.7129 84.5082 62.1541 86.0464 68.2808L88.3757 77.8952L82.364 79.3517C82.0762 78.1639 81.7787 76.9717 81.4812 75.7798L81.4811 75.7793L81.481 75.7788L81.4809 75.7785L81.4808 75.7782C81.0589 74.0876 80.6371 72.3979 80.2438 70.7225C79.7306 68.5367 79.0682 65.7154 75.7544 66.5182C72.8221 67.2286 72.611 69.5683 73.1324 71.7205L75.3905 81.0411L69.3788 82.4976L64.9655 64.2808Z" fill="white"/>
</g>
<defs>
<filter id="filter0_b_115_76" x="-20" y="-20" width="180" height="180" filterUnits="userSpaceOnUse" color-interpolation-filters="sRGB">
<feFlood flood-opacity="0" result="BackgroundImageFix"/>
<feGaussianBlur in="BackgroundImage" stdDeviation="10"/>
<feComposite in2="SourceAlpha" operator="in" result="effect1_backgroundBlur_115_76"/>
<feBlend mode="normal" in="SourceGraphic" in2="effect1_backgroundBlur_115_76" result="shape"/>
</filter>
</defs>
</svg>
