<svg width="62" height="62" viewBox="0 0 62 62" fill="none" xmlns="http://www.w3.org/2000/svg">
<g filter="url(#filter0_b_115_98)">
<rect width="62" height="62" rx="31" fill="#596366"/>
<path fill-rule="evenodd" clip-rule="evenodd" d="M17.477 27.3765C19.4756 19.9177 27.1647 15.4784 34.6235 17.477C42.0822 19.4756 46.5215 27.1647 44.523 34.6234C42.5244 42.0822 34.8353 46.5215 27.3765 44.5229C19.9178 42.5243 15.4785 34.8352 17.477 27.3765ZM36.635 25.4247C36.6567 25.3435 36.6844 25.2656 36.7175 25.1913L34.3254 23.8587L32.0988 27.9217C34.0911 28.5047 35.7463 29.5732 36.8363 30.854C37.2786 30.5975 37.8138 30.5097 38.3405 30.6508C39.4074 30.9367 40.0351 32.0539 39.7424 33.1461C39.5388 33.9062 38.943 34.4539 38.24 34.6204C38.2212 34.8682 38.1796 35.115 38.1141 35.3594C37.3093 38.363 33.1972 39.8709 28.9295 38.7274C24.6617 37.5838 21.8545 34.2219 22.6593 31.2183C22.7248 30.9738 22.8122 30.7393 22.9198 30.5153C22.3941 30.0197 22.1521 29.2475 22.3558 28.4874C22.6484 27.3952 23.7506 26.7415 24.8175 27.0274C25.3442 27.1685 25.7638 27.5122 26.0185 27.9554C27.4728 27.4376 29.2501 27.3126 31.0919 27.6755L33.9439 22.4713L37.4519 24.4295C37.7629 24.2785 38.1248 24.2341 38.4813 24.3297C39.2815 24.5441 39.7523 25.382 39.5328 26.2011C39.3133 27.0203 38.4867 27.5105 37.6865 27.2961C36.8863 27.0817 36.4155 26.2438 36.635 25.4247ZM28.7198 31.7824C28.5003 32.6015 27.6737 33.0918 26.8735 32.8774C26.0733 32.6629 25.6025 31.8251 25.822 31.0059C26.0415 30.1867 26.8682 29.6965 27.6683 29.9109C28.4685 30.1253 28.9393 30.9632 28.7198 31.7824ZM35.4813 33.5941C35.2618 34.4133 34.4352 34.9035 33.635 34.6891C32.8348 34.4747 32.364 33.6368 32.5835 32.8176C32.803 31.9985 33.6296 31.5082 34.4298 31.7226C35.23 31.937 35.7008 32.7749 35.4813 33.5941ZM26.0152 34.4731C26.224 34.2855 26.5404 34.3045 26.7217 34.5154C27.0173 34.8592 27.3633 35.1626 27.7446 35.4217C28.3004 35.7993 28.9313 36.0826 29.5908 36.2593C30.7028 36.5573 31.8961 36.552 32.9474 36.1836C33.2099 36.0916 33.4933 36.2333 33.5804 36.5002C33.6675 36.767 33.5253 37.0579 33.2627 37.1499C32.0195 37.5856 30.6246 37.5962 29.3258 37.2482C28.027 36.9002 26.8243 36.1935 25.9654 35.1946C25.7841 34.9837 25.8064 34.6606 26.0152 34.4731Z" fill="white"/>
</g>
<defs>
<filter id="filter0_b_115_98" x="-20" y="-20" width="102" height="102" filterUnits="userSpaceOnUse" color-interpolation-filters="sRGB">
<feFlood flood-opacity="0" result="BackgroundImageFix"/>
<feGaussianBlur in="BackgroundImage" stdDeviation="10"/>
<feComposite in2="SourceAlpha" operator="in" result="effect1_backgroundBlur_115_98"/>
<feBlend mode="normal" in="SourceGraphic" in2="effect1_backgroundBlur_115_98" result="shape"/>
</filter>
</defs>
</svg>
