<svg width="193" height="68" viewBox="0 0 193 68" fill="none" xmlns="http://www.w3.org/2000/svg">
<path d="M31.5752 18.1342L31.5752 47.2251H27.328L27.328 18.1342H31.5752ZM41.2384 47.708C39.8558 47.708 38.6058 47.4524 37.4884 46.941C36.371 46.4202 35.4855 45.6673 34.8321 44.6825C34.1882 43.6976 33.8662 42.4902 33.8662 41.0603C33.8662 39.8293 34.103 38.816 34.5765 38.0205C35.0499 37.2251 35.6891 36.5954 36.4941 36.1313C37.299 35.6673 38.1986 35.317 39.1929 35.0802C40.1872 34.8435 41.2005 34.6635 42.2327 34.5404C43.5395 34.3889 44.6001 34.2658 45.4145 34.1711C46.2289 34.067 46.8208 33.9012 47.1901 33.674C47.5594 33.4467 47.7441 33.0774 47.7441 32.566V32.4666C47.7441 31.226 47.3937 30.2649 46.6929 29.583C46.0016 28.9012 44.9694 28.5603 43.5963 28.5603C42.1664 28.5603 41.0395 28.8776 40.2157 29.512C39.4013 30.137 38.8378 30.833 38.5253 31.6001L34.5338 30.691C35.0073 29.3652 35.6986 28.2952 36.6077 27.4808C37.5263 26.6569 38.5821 26.0603 39.7753 25.691C40.9685 25.3122 42.2232 25.1228 43.5395 25.1228C44.4107 25.1228 45.334 25.227 46.3094 25.4353C47.2943 25.6342 48.2128 26.0035 49.0651 26.5433C49.9268 27.083 50.6323 27.8548 51.1816 28.8586C51.7308 29.8529 52.0054 31.1455 52.0054 32.7365L52.0054 47.2251H47.8577V44.2421H47.6872C47.4126 44.7914 47.0007 45.3312 46.4514 45.8615C45.9022 46.3918 45.1967 46.8321 44.335 47.1825C43.4732 47.5329 42.441 47.708 41.2384 47.708ZM42.1617 44.299C43.3359 44.299 44.3397 44.0669 45.173 43.6029C46.0158 43.1389 46.655 42.5329 47.0907 41.7848C47.5357 41.0272 47.7583 40.2175 47.7583 39.3558V36.5433C47.6068 36.6948 47.3132 36.8368 46.8776 36.9694C46.4514 37.0925 45.9638 37.2014 45.4145 37.2961C44.8653 37.3813 44.3302 37.4618 43.8094 37.5376C43.2886 37.6039 42.853 37.6607 42.5026 37.708C41.6787 37.8122 40.9259 37.9874 40.2441 38.2336C39.5717 38.4798 39.0319 38.8349 38.6247 39.299C38.227 39.7535 38.0282 40.3596 38.0282 41.1171C38.0282 42.1683 38.4164 42.9637 39.1929 43.5035C39.9694 44.0338 40.959 44.299 42.1617 44.299ZM69.0834 38.1768V25.4069H73.3448V47.2251H69.1686V43.4467H68.9414C68.4395 44.6115 67.6345 45.5821 66.5266 46.3586C65.4281 47.1257 64.0597 47.5092 62.4215 47.5092C61.02 47.5092 59.7794 47.2014 58.6999 46.5859C57.6298 45.9609 56.787 45.0376 56.1715 43.816C55.5654 42.5944 55.2624 41.084 55.2624 39.2848V25.4069H59.5095L59.5095 38.7734C59.5095 40.2601 59.9215 41.4438 60.7453 42.3245C61.5692 43.2052 62.6393 43.6455 63.9556 43.6455C64.751 43.6455 65.5417 43.4467 66.3277 43.049C67.1232 42.6512 67.7813 42.0499 68.3022 41.245C68.8325 40.4401 69.0929 39.4173 69.0834 38.1768ZM80.8986 34.2705V47.2251H76.6514V25.4069H80.7281V28.958H80.998C81.4999 27.8027 82.2859 26.8747 83.356 26.174C84.4355 25.4732 85.7944 25.1228 87.4327 25.1228C88.9194 25.1228 90.2215 25.4353 91.3389 26.0603C92.4564 26.6759 93.3228 27.5944 93.9384 28.816C94.5539 30.0376 94.8617 31.548 94.8617 33.3473V47.2251H90.6145V33.8586C90.6145 32.2772 90.2026 31.0414 89.3787 30.1512C88.5549 29.2516 87.4232 28.8018 85.9838 28.8018C84.999 28.8018 84.123 29.0149 83.356 29.441C82.5984 29.8671 81.9971 30.4921 81.552 31.316C81.1164 32.1304 80.8986 33.1152 80.8986 34.2705ZM107.348 47.6654C105.236 47.6654 103.418 47.1872 101.893 46.2308C100.378 45.2649 99.2136 43.9344 98.3992 42.2393C97.5848 40.5442 97.1776 38.6029 97.1776 36.4154C97.1776 34.1995 97.5942 32.244 98.4276 30.549C99.2609 28.8444 100.435 27.5139 101.95 26.5575C103.465 25.601 105.25 25.1228 107.305 25.1228C108.963 25.1228 110.44 25.4306 111.737 26.0461C113.035 26.6522 114.081 27.5045 114.876 28.6029C115.681 29.7014 116.16 30.9846 116.311 32.4524H112.178C111.95 31.4296 111.429 30.549 110.615 29.8103C109.81 29.0717 108.731 28.7024 107.376 28.7024C106.193 28.7024 105.156 29.0149 104.266 29.6399C103.385 30.2554 102.698 31.1361 102.206 32.2819C101.714 33.4183 101.467 34.763 101.467 36.316C101.467 37.9069 101.709 39.28 102.192 40.4353C102.675 41.5906 103.357 42.4855 104.237 43.12C105.127 43.7544 106.174 44.0717 107.376 44.0717C108.181 44.0717 108.911 43.9249 109.564 43.6313C110.227 43.3283 110.781 42.8974 111.226 42.3387C111.68 41.78 111.998 41.1077 112.178 40.3217H116.311C116.16 41.7327 115.7 42.9921 114.933 44.1001C114.166 45.208 113.139 46.0793 111.851 46.7137C110.572 47.3482 109.072 47.6654 107.348 47.6654ZM122.7 34.2705V47.2251H118.453V18.1342H122.643V28.958H122.913C123.425 27.7838 124.206 26.851 125.257 26.1598C126.308 25.4685 127.681 25.1228 129.376 25.1228C130.873 25.1228 132.179 25.4306 133.297 26.0461C134.424 26.6616 135.295 27.5802 135.91 28.8018C136.535 30.0139 136.848 31.5291 136.848 33.3473V47.2251H132.601V33.8586C132.601 32.2582 132.189 31.0177 131.365 30.137C130.541 29.2469 129.395 28.8018 127.927 28.8018C126.924 28.8018 126.024 29.0149 125.229 29.441C124.443 29.8671 123.822 30.4921 123.368 31.316C122.923 32.1304 122.7 33.1152 122.7 34.2705ZM148.301 47.2251V25.4069H152.549V47.2251H148.301ZM150.446 22.0404C149.708 22.0404 149.073 21.7942 148.543 21.3018C148.022 20.7999 147.762 20.2033 147.762 19.512C147.762 18.8113 148.022 18.2147 148.543 17.7223C149.073 17.2204 149.708 16.9694 150.446 16.9694C151.185 16.9694 151.815 17.2204 152.336 17.7223C152.866 18.2147 153.131 18.8113 153.131 19.512C153.131 20.2033 152.866 20.7999 152.336 21.3018C151.815 21.7942 151.185 22.0404 150.446 22.0404ZM166.047 25.4069V28.816L154.129 28.816V25.4069H166.047ZM157.325 20.1796H161.573V40.8188C161.573 41.6427 161.696 42.263 161.942 42.6796C162.188 43.0868 162.505 43.3662 162.894 43.5177C163.291 43.6598 163.722 43.7308 164.186 43.7308C164.527 43.7308 164.825 43.7071 165.081 43.6598C165.337 43.6124 165.536 43.5745 165.678 43.5461L166.445 47.0546C166.199 47.1493 165.848 47.244 165.394 47.3387C164.939 47.4429 164.371 47.4997 163.689 47.5092C162.572 47.5281 161.53 47.3293 160.564 46.9126C159.598 46.4959 158.817 45.852 158.22 44.9808C157.624 44.1096 157.325 43.0158 157.325 41.6995V20.1796Z" fill="white"/>
<rect x="0.9729" y="0.725098" width="191" height="66" rx="33" stroke="white" stroke-opacity="0.5"/>
</svg>
