<svg width="162" height="68" viewBox="0 0 162 68" fill="none" xmlns="http://www.w3.org/2000/svg">
<path d="M44.8171 31.0758L40.854 31.7576C40.7688 31.2557 40.5936 30.7822 40.3285 30.3371C40.0728 29.8921 39.6798 29.5322 39.1495 29.2576C38.6192 28.9735 37.9137 28.8315 37.033 28.8315C35.8114 28.8315 34.7413 29.1108 33.8228 29.6695C32.9137 30.2282 32.3929 30.9385 32.2603 31.8002C32.1372 32.501 32.3029 33.0692 32.7574 33.5048C33.212 33.9309 34.0122 34.286 35.158 34.5701L38.5103 35.3656C40.4421 35.8296 41.8247 36.554 42.658 37.5389C43.5008 38.5142 43.7944 39.7832 43.5387 41.3457C43.3209 42.643 42.7527 43.7936 41.8341 44.7974C40.925 45.8012 39.7603 46.5871 38.3398 47.1553C36.9194 47.7235 35.3379 48.0076 33.5955 48.0076C31.1144 48.0076 29.1826 47.482 27.8 46.4309C26.4175 45.3798 25.7072 43.893 25.6694 41.9707L29.8739 41.3457C29.9497 42.4157 30.3332 43.2254 31.0245 43.7746C31.7252 44.3144 32.6959 44.5843 33.9364 44.5843C35.3569 44.5938 36.5453 44.2955 37.5018 43.6894C38.4582 43.0834 39.0027 42.3495 39.1353 41.4877C39.2489 40.8154 39.0974 40.2567 38.6807 39.8116C38.2735 39.3665 37.5538 39.0256 36.5216 38.7889L32.9989 37.9792C31.0292 37.5152 29.6372 36.7671 28.8228 35.7349C28.0084 34.7027 27.7338 33.4053 27.9989 31.8428C28.2072 30.5644 28.747 29.4517 29.6182 28.5048C30.4989 27.5483 31.6116 26.8049 32.9563 26.2746C34.301 25.7349 35.7877 25.465 37.4165 25.465C39.7934 25.465 41.5785 25.9764 42.7716 26.9991C43.9648 28.0123 44.6466 29.3712 44.8171 31.0758ZM44.7573 47.5673L48.3937 25.7491H52.6408L49.0045 47.5673H44.7573ZM51.405 22.34C50.6664 22.34 50.0414 22.0938 49.53 21.6014C49.0281 21.0995 48.7961 20.5029 48.834 19.8116C48.8719 19.1108 49.1654 18.5142 49.7147 18.0218C50.2639 17.5199 50.9031 17.269 51.6323 17.269C52.3709 17.269 52.9912 17.5199 53.4931 18.0218C53.995 18.5142 54.2317 19.1108 54.2033 19.8116C54.1654 20.5029 53.8719 21.0995 53.3226 21.6014C52.7829 22.0938 52.1437 22.34 51.405 22.34ZM52.3324 47.5673L55.9688 25.7491H60.0455L59.4489 29.3002H59.7188C60.3817 28.0976 61.2813 27.1601 62.4177 26.4877C63.5635 25.8059 64.8608 25.465 66.3097 25.465C67.7491 25.465 68.9091 25.8059 69.7898 26.4877C70.68 27.1695 71.2624 28.107 71.537 29.3002H71.7643C72.465 28.126 73.4451 27.1932 74.7046 26.5019C75.9641 25.8106 77.3798 25.465 78.9518 25.465C80.912 25.465 82.4177 26.09 83.4688 27.34C84.5294 28.5805 84.8514 30.446 84.4347 32.9366L81.9915 47.5673H77.7302L80.1165 33.3343C80.3533 31.8476 80.126 30.7775 79.4347 30.1241C78.7434 29.4612 77.8391 29.1298 76.7216 29.1298C75.3391 29.1298 74.1932 29.5559 73.2841 30.4082C72.3751 31.251 71.8163 32.3353 71.608 33.661L69.2643 47.5673H65.0455L67.4745 33.0644C67.6639 31.8712 67.4461 30.9195 66.8211 30.2093C66.2055 29.4896 65.3059 29.1298 64.1222 29.1298C63.3173 29.1298 62.536 29.3428 61.7785 29.769C61.0304 30.1951 60.3911 30.7822 59.8608 31.5303C59.3305 32.2784 58.9849 33.1402 58.8239 34.1156L56.5796 47.5673H52.3324ZM83.9204 55.7491L88.9488 25.7491H93.0965L92.5141 29.286H92.8692C93.1912 28.8315 93.6268 28.3059 94.176 27.7093C94.7348 27.1127 95.4687 26.5919 96.3777 26.1468C97.2868 25.6923 98.4185 25.465 99.7726 25.465C101.534 25.465 103.025 25.9101 104.247 26.8002C105.469 27.6904 106.34 28.9735 106.861 30.6496C107.382 32.3258 107.448 34.3428 107.06 36.7008C106.671 39.0587 105.942 41.0805 104.872 42.7661C103.802 44.4423 102.505 45.7349 100.98 46.644C99.4649 47.5436 97.8219 47.9934 96.051 47.9934C94.7253 47.9934 93.6789 47.7709 92.9118 47.3258C92.1543 46.8807 91.5908 46.3599 91.2215 45.7633C90.8522 45.1667 90.5728 44.6364 90.3834 44.1724H90.1277L88.1959 55.7491H83.9204ZM91.2925 36.6582C91.0463 38.1923 91.0463 39.537 91.2925 40.6923C91.5387 41.8476 92.0312 42.7519 92.7698 43.4053C93.5179 44.0493 94.5027 44.3712 95.7243 44.3712C96.9933 44.3712 98.106 44.0351 99.0624 43.3627C100.019 42.6809 100.81 41.7576 101.435 40.5928C102.069 39.4281 102.509 38.1165 102.756 36.6582C102.992 35.2188 102.988 33.9262 102.741 32.7803C102.505 31.6345 102.017 30.7301 101.278 30.0673C100.54 29.4044 99.5312 29.0729 98.2527 29.0729C97.0122 29.0729 95.9137 29.3902 94.9573 30.0246C94.0103 30.6591 93.2243 31.5445 92.5993 32.6809C91.9743 33.8173 91.5387 35.143 91.2925 36.6582ZM116.673 18.4764L111.844 47.5673H107.596L112.426 18.4764L116.673 18.4764ZM124.504 48.0076C122.364 48.0076 120.593 47.5483 119.191 46.6298C117.799 45.7017 116.824 44.3996 116.265 42.7235C115.707 41.0379 115.617 39.0635 115.995 36.8002C116.365 34.5654 117.108 32.5957 118.225 30.8911C119.343 29.1866 120.735 27.8561 122.402 26.8996C124.078 25.9432 125.929 25.465 127.956 25.465C129.187 25.465 130.347 25.6686 131.436 26.0758C132.534 26.483 133.467 27.1222 134.234 27.9934C135.001 28.8646 135.531 29.9962 135.825 31.3883C136.128 32.7709 136.118 34.4517 135.796 36.4309L135.555 37.9366L118.197 37.9366L118.694 34.7548L131.876 34.7548C132.075 33.6373 132.023 32.6478 131.72 31.786C131.417 30.9148 130.896 30.2282 130.157 29.7264C129.428 29.2245 128.51 28.9735 127.402 28.9735C126.265 28.9735 125.205 29.2718 124.22 29.8684C123.235 30.465 122.411 31.2273 121.748 32.1553C121.095 33.0739 120.683 34.0209 120.512 34.9962L120.015 37.9082C119.769 39.4991 119.812 40.7775 120.143 41.7434C120.484 42.7093 121.081 43.4101 121.933 43.8457C122.785 44.2813 123.85 44.4991 125.129 44.4991C125.953 44.4991 126.715 44.3854 127.416 44.1582C128.126 43.9214 128.756 43.5758 129.305 43.1212C129.854 42.6572 130.314 42.0796 130.683 41.3883L134.575 42.1127C134.054 43.2964 133.306 44.3334 132.331 45.2235C131.355 46.1042 130.205 46.7907 128.879 47.2832C127.563 47.7661 126.104 48.0076 124.504 48.0076Z" fill="white"/>
<rect x="1.17505" y="1.06726" width="160" height="66" rx="33" stroke="white" stroke-opacity="0.5"/>
</svg>
