<svg width="100" height="100" viewBox="0 0 100 100" fill="none" xmlns="http://www.w3.org/2000/svg">
<path fill-rule="evenodd" clip-rule="evenodd" d="M0 26.5L100 0V73.2L0 100V26.5ZM45.221 74.786V46.662L35.842 49.151V67.9L26.463 70.389V42.263L35.843 39.776L45.222 37.289V27.914L35.843 30.399L26.463 32.886L17.084 35.373V82.249L26.464 79.762L35.843 77.273L45.221 74.786ZM82.74 64.838V17.964L73.361 20.451L63.982 22.938L54.602 25.425V72.3L63.982 69.813L73.361 67.326L82.74 64.838ZM63.981 60.438V32.313L73.361 29.826V57.952L63.981 60.438Z" fill="#00FF9D"/>
</svg>
