<svg width="68" height="68" viewBox="0 0 68 68" fill="none" xmlns="http://www.w3.org/2000/svg">
<rect x="2" y="2" width="64" height="64" rx="32" fill="white"/>
<path fill-rule="evenodd" clip-rule="evenodd" d="M34 20C26.268 20 20 26.268 20 34C20 41.732 26.268 48 34 48C41.732 48 48 41.732 48 34C48 26.268 41.732 20 34 20ZM30.6186 27.6921C30.6186 28.6267 29.8085 29.3843 28.8093 29.3843C27.81 29.3843 27 28.6267 27 27.6921C27 26.7576 27.81 26 28.8093 26C29.8085 26 30.6186 26.7576 30.6186 27.6921ZM27.2474 30.6281H30.3402V40H27.2474V30.6281ZM32.2268 30.6281H35.3196V31.8305C35.8387 31.1701 36.8354 30.4401 38.4433 30.4401C41.1508 30.4401 41.9738 31.8954 42 35.0537V40H38.9072C38.9072 39.3889 38.903 38.7745 38.8987 38.1604V38.1601V38.1598V38.1597V38.1595C38.8927 37.2883 38.8867 36.4175 38.8928 35.5571C38.9008 34.4345 38.911 32.9855 37.2062 32.9855C35.6977 32.9855 35.3196 34.0976 35.3196 35.2049V40H32.2268V30.6281Z" fill="#1275B1"/>
<rect x="2" y="2" width="64" height="64" rx="32" stroke="#465155" stroke-width="4"/>
</svg>
