<svg width="68" height="68" viewBox="0 0 68 68" fill="none" xmlns="http://www.w3.org/2000/svg">
<rect x="2" y="2" width="64" height="64" rx="32" fill="white"/>
<path d="M37.3851 28.9171C38.4654 27.0306 37.8243 24.6183 35.9532 23.5291C34.0821 22.4399 31.6896 23.0863 30.6093 24.9728L22.5309 39.0806C21.4506 40.9671 22.0917 43.3794 23.9628 44.4686C25.8339 45.5578 28.2264 44.9114 29.3067 43.0249L37.3851 28.9171Z" fill="#F8BB2D"/>
<path d="M29.8263 41.0546C29.8263 43.2336 28.0743 45 25.9131 45C23.752 45 22 43.2336 22 41.0546C22 38.8756 23.752 37.1091 25.9131 37.1091C28.0743 37.1091 29.8263 38.8756 29.8263 41.0546Z" fill="#3BA757"/>
<path d="M30.621 28.9171C29.5407 27.0306 30.1818 24.6183 32.0529 23.5291C33.924 22.4399 36.3165 23.0863 37.3968 24.9728L45.4752 39.0806C46.5555 40.9671 45.9144 43.3794 44.0433 44.4686C42.1722 45.5578 39.7797 44.9114 38.6994 43.0249L30.621 28.9171Z" fill="#4689F2"/>
<rect x="2" y="2" width="64" height="64" rx="32" stroke="#465155" stroke-width="4"/>
</svg>
