<svg xmlns="http://www.w3.org/2000/svg" width="48" height="48" viewBox="0 0 48 48">
  <g id="08-Location/Compas" fill="none" fill-rule="evenodd">
    <path id="Combined-Shape" fill="#9353F2" d="M2,24 C2,11.8488735 11.8480474,2 24,2 C36.1511265,2 46,11.8480474 46,24 C46,36.1511265 36.1519526,46 24,46 C11.8488735,46 2,36.1519526 2,24 Z M43.9754432,25 L41,25 C39.6666667,25 39.6666667,23 41,23 L43.9754444,23 C43.470842,12.7487085 35.2506613,4.52915052 25,4.02455679 L25,7 C25,7.55228475 24.5522847,8 24,8 C23.4477153,8 23,7.55228475 23,7 L23,4.02455564 C12.7487085,4.52915798 4.52915052,12.7493387 4.02455679,23 L7,23 C8.33333333,23 8.33333333,25 7,25 L4.02455564,25 C4.52915798,35.2512915 12.7493387,43.4708495 23,43.9754432 L23,41 C23,40.4477153 23.4477153,40 24,40 C24.5522847,40 25,40.4477153 25,41 L25,43.9754444 C35.2512915,43.470842 43.4708495,35.2506613 43.9754432,25 Z M19.2948806,19.286409 C22.8502263,15.7310633 27.5852286,13.3471752 33.4750138,12.129124 C34.5567142,11.9053758 35.6149684,12.6009181 35.838673,13.6826233 C35.8958764,13.9592257 35.8938431,14.2448077 35.8327068,14.5205675 C34.4966762,20.5468358 32.1249692,25.2807728 28.7051194,28.7006226 C25.2854199,32.1203222 20.5486367,34.4932699 14.5164546,35.8320464 C13.4381294,36.0713553 12.3699697,35.3912088 12.1306476,34.3128851 C12.0692279,34.0361441 12.0673396,33.7495079 12.1251079,33.4719816 C13.3519506,27.5780683 15.739965,22.8413246 19.2948806,19.286409 Z M27.2909059,27.286409 C30.4211452,24.1561698 32.6217045,19.7638441 33.8801175,14.087667 C28.3553489,15.2302301 23.9732933,17.4364234 20.7090941,20.7006226 C17.4447596,23.9649571 15.2341979,28.3497148 14.0831323,33.879554 C19.7654351,32.618428 24.1607942,30.4165207 27.2909059,27.286409 Z M24,26 C22.8954305,26 22,25.1045695 22,24 C22,22.8954305 22.8954305,22 24,22 C25.1045695,22 26,22.8954305 26,24 C26,25.1045695 25.1045695,26 24,26 Z"/>
  </g>
</svg>
