<svg xmlns="http://www.w3.org/2000/svg" width="48" height="48" viewBox="0 0 48 48">
  <g id="01-General/Crown" fill="none" fill-rule="evenodd">
    <path id="Combined-Shape" fill="#9353F2" fill-rule="nonzero" d="M4.00522746,35.1332427 C3.60136957,33.3088099 3.28603822,31.494399 3.03769237,29.1033072 C3.03427371,29.0703922 2.88997309,27.6903358 2.84372388,27.2412294 C2.76202029,26.4478405 2.6918737,25.7437788 2.62489241,25.03728 C2.31945026,21.8155668 2.11716981,18.9124729 2.03028311,16.0614174 C1.97981282,14.4053316 3.28142177,13.021895 4.93750754,12.9714253 C5.82043979,12.9445177 6.67035546,13.3081001 7.26066188,13.9652391 L12.4923578,19.789251 C12.972152,20.3233659 13.7940877,20.3674015 14.3282026,19.8876074 C14.4530513,19.7754561 14.5550034,19.6401916 14.62843,19.4892822 L21.3347152,5.70623876 C21.8391712,4.66945921 22.8784113,3.99736098 24,3.99736098 C25.143833,3.99736098 26.2220734,4.66239111 26.7299685,5.70623876 L33.4362538,19.4892824 C33.7503798,20.1348876 34.5283957,20.4036046 35.1740008,20.0894786 C35.3249102,20.016052 35.4601747,19.9140999 35.5723251,19.7892522 L40.7905088,13.9802684 C41.8977298,12.7476916 43.7945107,12.6460706 45.0270875,13.7532916 C45.6856234,14.3448529 46.0492826,15.197054 46.0207361,16.0818135 C45.8847662,20.2960117 45.5825189,23.8949542 45.0267017,29.1060586 C44.912333,30.1783312 44.7682085,31.1936607 44.5978376,32.1739927 C44.4870671,32.811378 44.370548,33.4051051 44.239454,34.0185313 C44.1826333,34.2844114 44.0448862,34.904722 43.9949164,35.1314039 C43.7556746,38.2103949 35.1002568,40 24,40 C12.9019531,40 4.2477718,38.2111074 4.00522746,35.1332427 Z M5.58450269,32.8597258 C8.5949038,31.0255783 15.5969136,30 24,30 C32.4203848,30 39.4339186,31.0298051 42.434038,32.8710633 C42.501558,32.5304098 42.5654207,32.1880269 42.6273728,31.8315478 C42.7904286,30.8933075 42.9284041,29.9212964 43.037982,28.8939414 C43.5889299,23.7284894 43.8877983,20.1697799 44.0217763,16.0173176 C44.0312919,15.7223958 43.9100713,15.438327 43.6905579,15.2411386 C43.2796963,14.8720625 42.6474319,14.9059364 42.2783566,15.3167971 L37.0601729,21.1257808 C36.7754812,21.4427044 36.4321177,21.7015058 36.04904,21.8878963 C34.4101961,22.6852931 32.4352328,22.0031655 31.6378361,20.3643216 L24.9315507,6.58127791 C24.7606741,6.23008498 24.3833492,5.99736098 24,5.99736098 C23.6557483,5.99736098 23.3077349,6.22242852 23.133133,6.58127791 L16.4268478,20.3643214 C16.2404572,20.7473991 15.9816557,21.0907627 15.6647321,21.3754545 C14.3089019,22.5933935 12.2224497,22.4816106 11.0045107,21.1257804 L5.7728148,15.3017686 C5.57604594,15.0827222 5.29274064,14.961528 4.99842981,14.9704972 C4.44640115,14.9873205 4.01253157,15.4484659 4.029355,16.0004947 C4.11477112,18.8032953 4.31423401,21.665952 4.61596412,24.8485117 C4.68238302,25.5490786 4.75201272,26.2479524 4.8332025,27.0363518 C4.87925958,27.4835925 5.02342846,28.862389 5.02699135,28.8966928 C5.18364418,30.4049574 5.36738321,31.6721962 5.58450269,32.8597258 Z M6.00021043,34.9980157 C6.00231482,34.9912221 6.02124456,35.0249422 6.10309037,35.1091465 C6.26554769,35.2762852 6.54692474,35.466739 6.93870854,35.6617455 C7.80544636,36.0931557 9.11510718,36.5012722 10.7709816,36.8498773 C14.2379207,37.5797592 18.9573342,38 24,38 C29.0426658,38 33.7620793,37.5797592 37.2290184,36.8498773 C38.8848928,36.5012722 40.1945536,36.0931557 41.0612915,35.6617455 C41.4530753,35.466739 41.7344523,35.2762852 41.8969096,35.1091465 C41.9788619,35.0248327 41.9977343,34.9911345 41.9997977,34.9980424 C41.9997938,34.9993521 41.9997925,35.0006615 41.9997938,35.0019704 C41.9977107,35.0088234 41.9788108,34.9751147 41.8969096,34.8908535 C41.7344523,34.7237148 41.4530753,34.533261 41.0612915,34.3382545 C40.1945536,33.9068443 38.8848928,33.4987278 37.2290184,33.1501227 C33.7620793,32.4202408 29.0426658,32 24,32 C18.9573342,32 14.2379207,32.4202408 10.7709816,33.1501227 C9.11510718,33.4987278 7.80544636,33.9068443 6.93870854,34.3382545 C6.54692474,34.533261 6.26554769,34.7237148 6.10309037,34.8908535 C6.02129261,34.9750084 6.00233706,35.0087383 6.00021416,35.0019962 C6.00021557,35.0006697 6.00021433,34.9993429 6.00021043,34.9980157 Z"/>
  </g>
</svg>
