<svg xmlns="http://www.w3.org/2000/svg" width="48" height="48" viewBox="0 0 48 48">
  <g id="01-General/Float" fill="none" fill-rule="evenodd">
    <path id="Combined-Shape" fill="#9353F2" fill-rule="nonzero" d="M19.4430645,45.5274652 C10.9497338,43.7385358 4.26145428,37.0502519 2.47253127,28.5569187 C2.3880371,28.5361177 2.30433641,28.5145785 2.22142888,28.4922998 C0.910926944,28.1401122 6.07915287e-06,26.9520839 6.07916579e-06,25.5950906 L-1.00230752e-05,22.427596 C-1.00230752e-05,21.0703882 0.911175228,19.8822286 2.22194293,19.5302327 C2.30332181,19.5083791 2.38519707,19.4872043 2.4675685,19.4667078 C4.24905585,10.9621481 10.9418682,4.26311434 19.4430805,2.47253143 C19.4638819,2.38803542 19.4854217,2.30433292 19.5077009,2.2214236 C19.8598911,0.910924383 21.0479181,5.73582725e-06 22.4049093,5.73584016e-06 L25.572404,-1.03569796e-05 C26.9296118,-1.03569796e-05 28.1177714,0.911174897 28.4697673,2.2219426 C28.491621,2.3033216 28.5127957,2.38519697 28.5332923,2.46756851 C37.0457315,4.25070647 43.7492976,10.9542744 45.5324329,19.4667146 C45.6148286,19.4872169 45.696728,19.5083978 45.7781308,19.530258 C47.0888622,19.8822828 48.0000194,21.0704206 48.0000194,22.4275978 L48.0000009,25.5951198 C48.0000009,26.9521331 47.0890613,28.1401691 45.7785376,28.4923248 C45.69564,28.5146006 45.6119493,28.536137 45.5274652,28.5569355 C43.7368768,37.0581425 37.037843,43.7509488 28.5332854,45.5324329 C28.5127831,45.6148286 28.4916022,45.696728 28.469742,45.7781308 C28.1177172,47.0888622 26.9295794,48.0000194 25.5724022,48.0000194 L22.4048802,48.0000009 C21.0478669,48.0000009 19.8598309,47.0890613 19.5076752,45.7785376 C19.4853994,45.69564 19.463863,45.6119493 19.4430645,45.5274652 Z M20.916302,33.515502 C21.3993389,33.1883795 21.9800907,33.0000194 22.5978053,33.0000194 L25.3894261,33.0000392 C26.0090044,33.0000392 26.5912512,33.189511 27.0750234,33.5183068 C30.121666,32.5347797 32.5292756,30.1291267 33.515502,27.083698 C33.1883795,26.6006611 33.0000194,26.0199093 33.0000194,25.4021947 L33.0000392,22.6105739 C33.0000392,21.9909956 33.189511,21.4087488 33.5183068,20.9249766 C32.5338497,17.8754532 30.124576,15.4661718 27.0750573,14.4817042 C26.5912747,14.8105176 26.009011,15.0000004 25.3894138,15.0000004 L22.597819,15.0000052 C21.9800955,15.0000052 21.3993346,14.8116369 20.9162921,14.4845012 C17.8708794,15.470726 15.4652371,17.8783195 14.4817042,20.9249427 C14.8105177,21.4087252 15.0000004,21.990989 15.0000004,22.6105862 L15.0000056,25.402181 C15.0000056,26.0199047 14.8116372,26.6006657 14.4845014,27.0837084 C15.4697937,30.1262412 17.8737678,32.5302129 20.916302,33.515502 Z M28.9021928,43.3948215 C36.0064594,41.6047672 41.5995656,36.0137904 43.3926669,28.9107358 C42.7707496,28.9703603 42.1160823,29.0000108 41.4285808,29.0000108 C39.5558363,29.0000108 37.5463838,28.779971 35.3997165,28.3415234 C35.3350038,28.3283075 35.271136,28.3130662 35.2081739,28.2958737 C33.990255,31.4715248 31.4615236,33.9978747 28.2842957,35.2126073 C28.3021606,35.2784319 28.3178924,35.3452413 28.3314065,35.4129663 C28.776391,37.6429756 28.9999892,39.6473299 28.9999892,41.4285808 C28.9999892,42.1079881 28.9674609,42.7634257 28.9021928,43.3948215 Z M19.0892642,43.3926669 C19.0296397,42.7707496 18.9999892,42.1160823 18.9999892,41.4285808 C18.9999892,39.5558363 19.220029,37.5463838 19.6584766,35.3997165 C19.6716925,35.3350038 19.6869338,35.271136 19.7041263,35.2081739 C16.5323314,33.9917339 14.0082618,31.4676629 12.7918236,28.2958672 C12.7288824,28.3130538 12.6650361,28.3282906 12.6003455,28.3415034 C10.4536455,28.7799585 8.44418327,29 6.57143223,29 C5.88392513,29 5.22925287,28.970349 4.60732985,28.910723 C6.39970887,36.0109363 11.9890527,41.6002833 19.0892642,43.3926669 Z M28.9022027,4.605181 C28.9674712,5.23657829 29,5.89202001 29,6.57143202 C29,8.35268729 28.7764005,10.3570492 28.3314113,12.5870808 C28.3178993,12.6547914 28.3021704,12.7215869 28.2843095,12.7873979 C31.4653912,14.0036085 33.9964005,16.5346207 35.2126073,19.7157043 C35.2784319,19.6978394 35.3452413,19.6821076 35.4129663,19.6685935 C37.6429756,19.223609 39.6473299,19.0000108 41.4285808,19.0000108 C42.1079881,19.0000108 42.7634257,19.0325391 43.3948215,19.0978072 C41.6040504,11.990696 36.0093125,6.39595559 28.9022027,4.605181 Z M19.0892766,4.60732996 C11.9862193,6.40042707 6.39523903,11.9935313 4.60518099,19.0977973 C5.23657834,19.0325288 5.89202014,19 6.57143223,19 C8.35268745,19 10.3570493,19.2235995 12.5870809,19.6685887 C12.6547915,19.6821007 12.721587,19.6978295 12.7873979,19.7156905 C14.0021335,16.5384668 16.5284835,14.0097396 19.7041332,12.7918235 C19.6869465,12.7288821 19.6717096,12.6650357 19.6584968,12.6003449 C19.2200416,10.4536423 19,8.44417855 19,6.57142709 C19,5.88392183 19.0296509,5.22925138 19.0892766,4.60732996 Z M12.1956975,21.6299196 C10.0874711,21.2092359 8.21186545,21 6.57143223,21 C5.16040704,21 3.88378989,21.1548168 2.74064891,21.4617979 C2.30372165,21.5791311 1.99998998,21.9751886 1.99998998,22.4275909 L2.00000608,25.5950855 C2.00000608,26.0474171 2.30365119,26.4434328 2.74047374,26.5608256 C3.82462933,26.852157 5.10199207,27 6.57143223,27 C8.30374577,27 10.1801493,26.7945288 12.2001161,26.3819585 C12.6656554,26.2868739 13.0000056,25.8773314 13.0000056,25.4021828 L13.0000004,22.6105881 C13.0000004,22.1337446 12.6633144,21.7232353 12.1956975,21.6299196 Z M45.2593968,21.4618156 C44.1162452,21.1548299 42.8396172,21.0000108 41.4285808,21.0000108 C39.7881517,21.0000108 37.9125536,21.2092454 35.8043381,21.6299267 C35.3367199,21.723237 35.0000392,22.1337376 35.0000392,22.610581 L35.0000194,25.4022018 C35.0000194,25.8773572 35.33437,26.2868965 35.7999252,26.3819743 C37.8198794,26.7945412 39.6962735,27.0000108 41.4285808,27.0000108 C42.8980107,27.0000108 44.1753676,26.85217 45.2595219,26.5608428 C45.6963581,26.443459 46.0000009,26.0474518 46.0000009,25.595114 L46.0000194,22.4275919 C46.0000194,21.9752069 45.696295,21.5791539 45.2593968,21.4618156 Z M26.3700804,12.1956974 C26.7907641,10.087471 27,8.21186528 27,6.57143202 C27,5.16040678 26.8451832,3.8837896 26.5382021,2.74064857 C26.4208689,2.30372132 26.0248114,1.99998964 25.572409,1.99998964 L22.4049143,2.00000574 C21.9525835,2.00000574 21.5565677,2.30365054 21.4391743,2.74047115 C21.147843,3.82462507 21,5.10198697 21,6.57142709 C21,8.30374113 21.2054713,10.1801463 21.6180418,12.2001159 C21.7131263,12.6656551 22.1226687,13.0000052 22.5978173,13.0000052 L25.3894121,13.0000004 C25.8662554,13.0000004 26.2767647,12.6633144 26.3700804,12.1956974 Z M26.5381844,45.2593968 C26.8451701,44.1162452 26.9999892,42.8396172 26.9999892,41.4285808 C26.9999892,39.7881517 26.7907546,37.9125536 26.3700733,35.8043381 C26.276763,35.3367199 25.8662624,35.0000392 25.389419,35.0000392 L22.5977982,35.0000194 C22.1226428,35.0000194 21.7131035,35.33437 21.6180257,35.7999252 C21.2054588,37.8198794 20.9999892,39.6962735 20.9999892,41.4285808 C20.9999892,42.8980107 21.14783,44.1753676 21.4391572,45.2595219 C21.556541,45.6963581 21.9525482,46.0000009 22.404886,46.0000009 L25.5724081,46.0000194 C26.0247931,46.0000194 26.4208461,45.696295 26.5381844,45.2593968 Z"/>
  </g>
</svg>
