<?xml version="1.0" encoding="utf-8"?>
<!-- Generator: Adobe Illustrator 21.0.0, SVG Export Plug-In . SVG Version: 6.00 Build 0)  -->
<svg version="1.1" id="Слой_1" xmlns="http://www.w3.org/2000/svg" xmlns:xlink="http://www.w3.org/1999/xlink" x="0px" y="0px"
	 viewBox="0 0 219 28" style="enable-background:new 0 0 219 28;" xml:space="preserve">
<style type="text/css">
	.st0{fill:#888396;}
	.st1{fill:#FFFFFF;}
</style>
<g id="logo_1_">
	<g>
		<g>
			<path class="st0" d="M13.5,29.3c-8.4,0-15.2-6.8-15.2-15.2S5.1-1.2,13.5-1.2h10.9c8.4,0,15.2,6.8,15.2,15.2s-6.8,15.2-15.2,15.2
				L13.5,29.3L13.5,29.3z M13.5,6.6c-4.1,0-7.4,3.3-7.4,7.4s3.3,7.4,7.4,7.4h10.9c4.1,0,7.4-3.3,7.4-7.4s-3.3-7.4-7.4-7.4
				C24.4,6.6,13.5,6.6,13.5,6.6z"/>
			<path class="st1" d="M24.4,0.7c7.4,0,13.4,6,13.4,13.4s-6,13.4-13.4,13.4H13.5c-7.4,0-13.4-6-13.4-13.4s6-13.4,13.4-13.4
				L24.4,0.7 M13.5,23.2h10.9c5.1,0,9.2-4.1,9.2-9.2s-4.1-9.2-9.2-9.2H13.5c-5.1,0-9.2,4.1-9.2,9.2S8.4,23.2,13.5,23.2 M24.4-3H13.5
				c-9.4,0-17,7.6-17,17s7.6,17,17,17h10.9c9.4,0,17-7.6,17-17S33.8-3,24.4-3L24.4-3z M13.5,19.5c-3,0-5.5-2.5-5.5-5.5
				c0-3.1,2.4-5.5,5.5-5.5h10.9c3,0,5.5,2.5,5.5,5.5c0,3.1-2.4,5.5-5.5,5.5H13.5L13.5,19.5z"/>
		</g>
	</g>
	<g>
		<g>
			<path class="st0" d="M23.1,20.3c-0.4,0-0.9-0.2-1.4-0.4c-0.9-0.7-1.1-2-0.3-2.9l2.3-2.9l-2.2-2.8c-0.7-0.9-0.6-2.2,0.3-2.9
				c0.9-0.7,2.2-0.6,2.9,0.3l3.3,4.2c0.6,0.7,0.6,1.8,0,2.6l-3.3,4.2C24.3,20.1,23.7,20.3,23.1,20.3z"/>
		</g>
		<g>
			<path class="st0" d="M13.1,20.3c-0.4,0-0.9-0.2-1.4-0.4c-0.9-0.7-1.1-2-0.3-2.9l2.3-2.9l-2.2-2.8c-0.7-0.9-0.6-2.2,0.3-2.9
				c0.9-0.7,2.2-0.6,2.9,0.3l3.3,4.2c0.6,0.7,0.6,1.8,0,2.6l-3.3,4.2C14.2,20.1,13.7,20.3,13.1,20.3z"/>
		</g>
	</g>
</g>
<g>
	<path class="st0" d="M44.7,17.6l2.3-1.8c0.4,0.6,0.9,1,1.3,1.3c0.5,0.3,1,0.4,1.6,0.4c0.9,0,1.4-0.3,1.4-1c0-0.3-0.1-0.5-0.3-0.6
		c-0.2-0.1-0.5-0.3-1.1-0.6l-1.4-0.6c-2.2-1-3.4-2.3-3.4-4c0-1.2,0.4-2.1,1.3-2.8c0.9-0.7,2-1.1,3.3-1.1c2.1,0,3.7,0.9,4.5,2.7
		l-2.3,1.8c-0.3-0.5-0.7-0.9-1-1.1C50.8,10,50.5,9.9,50,9.9c-0.8,0-1.2,0.3-1.2,0.8c0,0.2,0.1,0.4,0.3,0.6c0.2,0.2,0.5,0.3,0.9,0.5
		l1.5,0.6c1.2,0.5,2,1.1,2.6,1.7c0.5,0.6,0.8,1.4,0.8,2.3c0,1.3-0.5,2.3-1.4,3c-0.9,0.8-2.1,1.1-3.5,1.1c-1.2,0-2.2-0.3-3.2-0.8
		C45.9,19.3,45.2,18.5,44.7,17.6z"/>
	<path class="st0" d="M64.9,20.3l-0.5-1.1h-4.8l-0.5,1.1h-3.7l6-13.5h1.1l6,13.5H64.9z M63.2,16.5l-1.1-3.1l-1.2,3.1H63.2z"/>
	<path class="st0" d="M70,20.3V7.1h3.5v10.1h5.5v3.1H70z"/>
	<path class="st0" d="M79.8,13.7c0-1.9,0.7-3.5,2.1-4.9c1.4-1.4,3.1-2,5.1-2c1.9,0,3.6,0.6,5.1,2c1.4,1.4,2.1,3,2.1,4.9
		c0,1.9-0.7,3.5-2.1,4.9c-1.4,1.4-3.1,2-5.1,2c-2,0-3.6-0.6-5.1-2C80.4,17.2,79.7,15.6,79.8,13.7z M90.5,13.7c0-1.1-0.3-2-1-2.7
		c-0.7-0.7-1.6-1-2.6-1c-1.1,0-1.9,0.3-2.6,1s-1,1.6-1,2.7c0,1.1,0.3,2,1,2.7c0.7,0.7,1.5,1,2.6,1c1,0,1.9-0.3,2.6-1
		C90.2,15.7,90.5,14.8,90.5,13.7z"/>
	<path class="st0" d="M104.3,7.1h3.5v13.5h-1.1l-7.2-7v6.7H96V6.8h1.1l7.2,6.9V7.1z"/>
	<path class="st0" d="M121.1,16.4c0,1.1-0.4,2.1-1.3,2.8c-0.9,0.7-1.9,1.1-3.2,1.1h-6.2V7.1h4.8c1.3,0,2.4,0.4,3.2,1.1
		c0.9,0.7,1.3,1.7,1.3,2.8c0,0.9-0.3,1.6-0.8,2.2C120.4,13.8,121.1,14.9,121.1,16.4z M115,10h-1.2v2.3h1.2c0.4,0,0.7-0.1,1-0.3
		c0.2-0.2,0.4-0.5,0.4-0.8c0-0.3-0.1-0.6-0.4-0.8C115.7,10.1,115.4,10,115,10z M117.7,16.3c0-0.8-0.4-1.2-1.3-1.2h-2.7v2.3h2.7
		C117.3,17.4,117.7,17,117.7,16.3z"/>
	<path class="st0" d="M122.3,13.7c0-1.9,0.7-3.5,2.1-4.9c1.4-1.4,3.1-2,5.1-2c1.9,0,3.6,0.6,5.1,2c1.4,1.4,2.1,3,2.1,4.9
		c0,1.9-0.7,3.5-2.1,4.9c-1.4,1.4-3.1,2-5.1,2c-2,0-3.6-0.6-5.1-2C122.9,17.2,122.3,15.6,122.3,13.7z M133.1,13.7c0-1.1-0.3-2-1-2.7
		c-0.7-0.7-1.6-1-2.6-1c-1.1,0-1.9,0.3-2.6,1c-0.7,0.7-1,1.6-1,2.7c0,1.1,0.3,2,1,2.7c0.7,0.7,1.5,1,2.6,1c1,0,1.9-0.3,2.6-1
		C132.7,15.7,133.1,14.8,133.1,13.7z"/>
	<path class="st0" d="M137.9,13.7c0-1.9,0.7-3.5,2.1-4.9c1.4-1.4,3.1-2,5.1-2c1.9,0,3.6,0.6,5.1,2c1.4,1.4,2.1,3,2.1,4.9
		c0,1.9-0.7,3.5-2.1,4.9c-1.4,1.4-3.1,2-5.1,2c-2,0-3.6-0.6-5.1-2C138.5,17.2,137.8,15.6,137.9,13.7z M148.7,13.7c0-1.1-0.3-2-1-2.7
		c-0.7-0.7-1.6-1-2.6-1c-1.1,0-1.9,0.3-2.6,1c-0.7,0.7-1,1.6-1,2.7c0,1.1,0.3,2,1,2.7c0.7,0.7,1.5,1,2.6,1c1,0,1.9-0.3,2.6-1
		C148.3,15.7,148.7,14.8,148.7,13.7z"/>
	<path class="st0" d="M153.3,17.6l2.3-1.8c0.4,0.6,0.9,1,1.3,1.3c0.5,0.3,1,0.4,1.6,0.4c0.9,0,1.4-0.3,1.4-1c0-0.3-0.1-0.5-0.3-0.6
		c-0.2-0.1-0.5-0.3-1.1-0.6l-1.4-0.6c-2.2-1-3.4-2.3-3.4-4c0-1.2,0.4-2.1,1.3-2.8c0.9-0.7,2-1.1,3.3-1.1c2.1,0,3.7,0.9,4.5,2.7
		l-2.3,1.8c-0.3-0.5-0.7-0.9-1-1.1c-0.3-0.2-0.7-0.3-1.2-0.3c-0.8,0-1.2,0.3-1.2,0.8c0,0.2,0.1,0.4,0.3,0.6c0.2,0.2,0.5,0.3,0.9,0.5
		l1.5,0.6c1.2,0.5,2,1.1,2.6,1.7c0.5,0.6,0.8,1.4,0.8,2.3c0,1.3-0.5,2.3-1.4,3c-0.9,0.8-2.1,1.1-3.5,1.1c-1.2,0-2.2-0.3-3.2-0.8
		C154.5,19.3,153.8,18.5,153.3,17.6z"/>
	<path class="st0" d="M168.3,20.3V10.2h-4V7.1h11.4v3.1h-4v10.1H168.3z"/>
	<path class="st0" d="M175.3,19.9c-0.4-0.4-0.6-1-0.6-1.6c0-0.6,0.2-1.2,0.6-1.6c0.4-0.4,1-0.6,1.6-0.6c0.6,0,1.2,0.2,1.6,0.6
		c0.4,0.4,0.6,1,0.6,1.6c0,0.6-0.2,1.2-0.6,1.6c-0.4,0.4-1,0.6-1.6,0.6C176.3,20.6,175.7,20.4,175.3,19.9z"/>
	<path class="st0" d="M189.3,7.1h3.5v13.5h-1.1l-7.2-7v6.7h-3.5V6.8h1.1l7.2,6.9V7.1z"/>
	<path class="st0" d="M195.5,20.3V7.1h9.2v3.1h-5.7V12h4.1v2.9h-4.1v2.3h6v3.1H195.5z"/>
	<path class="st0" d="M209.9,20.3V10.2h-4V7.1h11.4v3.1h-4v10.1H209.9z"/>
</g>
</svg>
