<svg id="logo" xmlns="http://www.w3.org/2000/svg" width="197.094" height="32" viewBox="0 0 197.094 32">
  <metadata><?xpacket begin="﻿" id="W5M0MpCehiHzreSzNTczkc9d"?>
<x:xmpmeta xmlns:x="adobe:ns:meta/" x:xmptk="Adobe XMP Core 5.6-c140 79.160451, 2017/05/06-01:08:21        ">
   <rdf:RDF xmlns:rdf="http://www.w3.org/1999/02/22-rdf-syntax-ns#">
      <rdf:Description rdf:about=""/>
   </rdf:RDF>
</x:xmpmeta>
                                                                                                    
                                                                                                    
                                                                                                    
                                                                                                    
                                                                                                    
                                                                                                    
                                                                                                    
                                                                                                    
                                                                                                    
                                                                                                    
                                                                                                    
                                                                                                    
                                                                                                    
                                                                                                    
                                                                                                    
                                                                                                    
                                                                                                    
                                                                                                    
                                                                                                    
                                                                                                    
                           
<?xpacket end="w"?></metadata>
<defs>
    <style>
      .cls-1 {
        fill: #9353f2;
      }

      .cls-1, .cls-2, .cls-3 {
        fill-rule: evenodd;
      }

      .cls-2, .cls-3 {
        fill: none;
        stroke: #c7f9d8;
        stroke-width: 5px;
      }

      .cls-3 {
        stroke-linecap: round;
        stroke-linejoin: round;
      }
    </style>
  </defs>
  <path id="SalonBoost" class="cls-1" d="M427.126,84.077c4.121,0,7.334-2.3,7.334-6.243,0-2.94-1.788-4.637-5.122-6.031l-2.3-.97c-1.243-.516-1.727-0.879-1.727-1.637,0-.909.757-1.273,1.788-1.273a3.947,3.947,0,0,1,2.576,1.152,2.209,2.209,0,0,0,1.333.454,2.394,2.394,0,0,0,2.333-2.333,2.288,2.288,0,0,0-.606-1.545,7.064,7.064,0,0,0-5.7-2.3c-3.97,0-7,2.333-7,5.91,0,2.818,1.879,4.637,5.061,6.031l2.061,0.909c1.394,0.606,2.031.909,2.031,1.849,0,0.97-.667,1.455-2.061,1.455a6.008,6.008,0,0,1-3.819-1.7,2.161,2.161,0,0,0-1.182-.364,2.326,2.326,0,0,0-2.333,2.3,2.941,2.941,0,0,0,1.061,2.122A9.982,9.982,0,0,0,427.126,84.077Zm26.91-3.758-6.273-15.243a2.651,2.651,0,0,0-4.97,0l-6.274,15.243a3.568,3.568,0,0,0-.273,1.273,2.462,2.462,0,0,0,2.576,2.485,2.57,2.57,0,0,0,2.455-1.879l0.424-1.061h7.153l0.424,1.061a2.57,2.57,0,0,0,2.455,1.879,2.461,2.461,0,0,0,2.575-2.485A3.565,3.565,0,0,0,454.036,80.319Zm-8.759-9.213,2.031,5.849h-4.061Zm14.606,12.607h8.788a2.269,2.269,0,0,0,2.364-2.334,2.293,2.293,0,0,0-2.364-2.364h-6.213V65.985a2.539,2.539,0,0,0-2.606-2.637,2.631,2.631,0,0,0-2.606,2.637V81.077A2.564,2.564,0,0,0,459.883,83.714Zm22.848-20.365A10.374,10.374,0,1,0,493.55,73.713,10.452,10.452,0,0,0,482.731,63.348Zm0.031,4.788a5.577,5.577,0,0,1,0,11.152A5.577,5.577,0,0,1,482.762,68.137Zm28.848-4.788A2.557,2.557,0,0,0,509,65.985v8l-7.274-8.97c-0.7-.849-1.273-1.667-2.7-1.667a2.544,2.544,0,0,0-2.545,2.637V81.441a2.606,2.606,0,1,0,5.212,0V73.41l7.273,9c0.7,0.849,1.273,1.667,2.7,1.667a2.544,2.544,0,0,0,2.546-2.637V65.985A2.557,2.557,0,0,0,511.61,63.348Zm19.3,9.637a4.923,4.923,0,0,0,1.213-3.364c0-3.455-2.819-5.91-6.759-5.91H520.79a2.564,2.564,0,0,0-2.636,2.637V81.077a2.564,2.564,0,0,0,2.636,2.637h6.7c3.909,0,6.758-2.485,6.758-5.94A4.959,4.959,0,0,0,530.912,72.986Zm-5.879-4.879a1.772,1.772,0,1,1,0,3.515h-1.879V68.107h1.879Zm2.121,11.213h-4V75.8h4A1.773,1.773,0,1,1,527.154,79.32Zm63.6,4.758c4.122,0,7.334-2.3,7.334-6.243,0-2.94-1.788-4.637-5.121-6.031l-2.3-.97c-1.242-.516-1.727-0.879-1.727-1.637,0-.909.758-1.273,1.788-1.273a3.947,3.947,0,0,1,2.576,1.152,2.211,2.211,0,0,0,1.333.454,2.394,2.394,0,0,0,2.334-2.333,2.293,2.293,0,0,0-.606-1.545,7.065,7.065,0,0,0-5.7-2.3c-3.97,0-7,2.333-7,5.91,0,2.818,1.879,4.637,5.061,6.031l2.061,0.909c1.394,0.606,2.03.909,2.03,1.849,0,0.97-.667,1.455-2.061,1.455a6,6,0,0,1-3.818-1.7,2.163,2.163,0,0,0-1.182-.364,2.326,2.326,0,0,0-2.334,2.3,2.941,2.941,0,0,0,1.061,2.122A9.982,9.982,0,0,0,590.758,84.077Zm17.212,0a2.557,2.557,0,0,0,2.606-2.637V68.409h3.91a2.318,2.318,0,0,0,2.394-2.364,2.293,2.293,0,0,0-2.394-2.333H601.455a2.349,2.349,0,1,0,0,4.7h3.909V81.441A2.557,2.557,0,0,0,607.97,84.077Z" transform="translate(-419.781 -56.875)"/>
  <path id="Rounded_Rectangle_1" data-name="Rounded Rectangle 1" class="cls-2" d="M552,59.375h13a13.5,13.5,0,0,1,0,27H552A13.5,13.5,0,0,1,552,59.375Z" transform="translate(-419.781 -56.875)"/>
  <path id="Rounded_Rectangle_2" data-name="Rounded Rectangle 2" class="cls-3" d="M563.5,67.907l4,4.972-4,5.026" transform="translate(-419.781 -56.875)"/>
  <path id="Rounded_Rectangle_2_copy_2" data-name="Rounded Rectangle 2 copy 2" class="cls-3" d="M551.5,67.907l4,4.972-4,5.026" transform="translate(-419.781 -56.875)"/>
</svg>
