<svg xmlns="http://www.w3.org/2000/svg" width="30.16" height="37.84" viewBox="0 0 30.16 37.84">
  <metadata><?xpacket begin="﻿" id="W5M0MpCehiHzreSzNTczkc9d"?>
<x:xmpmeta xmlns:x="adobe:ns:meta/" x:xmptk="Adobe XMP Core 5.6-c140 79.160451, 2017/05/06-01:08:21        ">
   <rdf:RDF xmlns:rdf="http://www.w3.org/1999/02/22-rdf-syntax-ns#">
      <rdf:Description rdf:about=""/>
   </rdf:RDF>
</x:xmpmeta>
<?xpacket end="w"?></metadata>
<defs>
    <style>
      .cls-1 {
        fill: #fff;
        fill-rule: evenodd;
      }
    </style>
  </defs>
  <path class="cls-1" d="M1153.09,7120.04c1.09-5.85-.63-10.16-2.15-13.96-1.41-3.52-2.62-6.55-1.62-10.29a0.836,0.836,0,0,0-.25-0.83,0.827,0.827,0,0,0-.85-0.16,21,21,0,0,0-10.46,8.83,36.392,36.392,0,0,0-3.01,7.89c-3.09-1.58-2.53-6.66-2.52-6.71a0.837,0.837,0,0,0-.99-0.92c-0.19.04-4.79,1-7.22,9.11-0.09.26-.16,0.54-0.23,0.81a14.966,14.966,0,0,0,10.63,18.28c0.01,0,.02.01,0.03,0.01h0.01a14.962,14.962,0,0,0,18.3-10.53C1152.87,7121.18,1153.09,7120.04,1153.09,7120.04Zm-18.24,10.45a5.151,5.151,0,0,1-3.46-6.41,3.185,3.185,0,0,1,.09-0.31,6.516,6.516,0,0,1,1.19-2.4,3.046,3.046,0,0,0,2.14,2.63,0.842,0.842,0,0,0,1.02-.59,16.364,16.364,0,0,1,1.28-3.56,8.26,8.26,0,0,1,2.45-2.63,10.713,10.713,0,0,0,.85,3.47,9.435,9.435,0,0,1,.73,5.55c-0.03.14-.05,0.28-0.09,0.43A5.166,5.166,0,0,1,1134.85,7130.49Z" transform="translate(-1123.28 -7094.75)"/>
</svg>
