<svg width="89" height="30" viewBox="0 0 89 30" fill="none" xmlns="http://www.w3.org/2000/svg">
<path d="M32.1964 19.1873H37.1564V21.9649H24.7423V19.6125L30.5242 12.3284C30.7887 12.0072 31.1194 11.601 31.5162 11.1097C31.9319 10.6184 32.2153 10.2783 32.3665 10.0894C31.913 10.1082 30.9115 10.1177 29.3621 10.1177H24.884V7.34011H36.8163V9.69255L31.0344 16.9766C30.7698 17.2978 30.4297 17.7041 30.014 18.1954C29.6172 18.6866 29.3432 19.0267 29.1921 19.2157C29.6456 19.1968 30.647 19.1873 32.1964 19.1873Z" fill="white"/>
<path d="M51.8858 14.9076V15.7579H40.9455C41.0778 17.005 41.4651 17.9497 42.1076 18.5922C42.7689 19.2157 43.6475 19.5275 44.7434 19.5275C46.3684 19.5275 47.4832 18.8283 48.0879 17.4301H51.5173C51.1394 18.9228 50.3458 20.1132 49.1365 21.0013C47.9273 21.8705 46.4534 22.305 44.7151 22.305C42.5421 22.305 40.7849 21.6059 39.4434 20.2077C38.1018 18.8094 37.431 16.9577 37.431 14.6525C37.431 12.3473 38.0924 10.4956 39.415 9.09736C40.7566 7.69912 42.5044 7 44.6584 7C46.8691 7 48.6264 7.72746 49.9301 9.18238C51.2339 10.6373 51.8858 12.5457 51.8858 14.9076ZM44.6301 9.77758C42.5327 9.77758 41.314 10.9396 40.9739 13.2637H48.3146C48.1634 12.1867 47.7666 11.3364 47.1242 10.7129C46.4818 10.0894 45.6504 9.77758 44.6301 9.77758Z" fill="white"/>
<path d="M60.6539 10.9113L62.6945 7.34011H66.5208L58.018 21.1713L54.1634 27.5201H50.6205L54.3901 21.3697L51.8676 7.34011H55.6372L56.2324 11.8749C56.2324 11.9127 56.2607 12.2245 56.3174 12.8102C56.393 13.3771 56.4591 13.8873 56.5158 14.3408C56.5725 14.7942 56.6386 15.4083 56.7142 16.183C56.8087 16.9388 56.8654 17.4207 56.8843 17.6285C58.6793 14.3785 59.9358 12.1395 60.6539 10.9113Z" fill="white"/>
<path d="M78.4661 21.9649H74.8949C74.7249 21.6626 74.5926 21.0674 74.4981 20.1793C73.5156 21.5965 71.9473 22.305 69.7933 22.305C68.1872 22.305 66.9023 21.9177 65.9387 21.143C64.9939 20.3683 64.5215 19.2913 64.5215 17.9119C64.5215 15.2477 66.3921 13.7267 70.1334 13.3488L72.3441 13.1504C73.081 13.0559 73.6101 12.8858 73.9313 12.6402C74.2525 12.3757 74.4131 11.9883 74.4131 11.4781C74.4131 10.8546 74.2053 10.4011 73.7896 10.1177C73.3928 9.81537 72.7126 9.66421 71.7489 9.66421C70.7097 9.66421 69.9633 9.84371 69.5098 10.2027C69.0563 10.5428 68.7918 11.138 68.7162 11.9883H65.2017C65.4096 8.66277 67.6014 7 71.7772 7C75.8397 7 77.8709 8.46437 77.8709 11.3931V19.1873C77.8709 20.4722 78.0693 21.3981 78.4661 21.9649ZM70.6435 19.7542C71.7583 19.7542 72.6653 19.4519 73.3644 18.8472C74.0636 18.2237 74.4131 17.3356 74.4131 16.183V14.8509C74.073 15.1532 73.5156 15.3516 72.7409 15.4461L70.8136 15.6729C69.8688 15.7862 69.1886 16.013 68.7729 16.3531C68.3761 16.6743 68.1777 17.1467 68.1777 17.7702C68.1777 18.3938 68.3856 18.885 68.8013 19.244C69.2359 19.5841 69.8499 19.7542 70.6435 19.7542Z" fill="white"/>
<path d="M8.20569 7.31042H16.5776C18.9925 7.31042 20.8449 7.96219 22.1348 9.26573C23.4246 10.5555 24.0695 12.3462 24.0695 14.6377C24.0695 16.9292 23.4246 18.7267 22.1348 20.0302C20.8449 21.32 18.9925 21.9649 16.5776 21.9649H8.20569V7.31042ZM11.6841 19.0217H16.5158C17.7782 19.0217 18.7456 18.6581 19.4179 17.9308C20.104 17.1899 20.447 16.0921 20.447 14.6377C20.447 13.1832 20.104 12.0923 19.4179 11.3651C18.7456 10.6242 17.7782 10.2537 16.5158 10.2537H11.6841V19.0217Z" fill="white"/>
</svg>
