<svg width="68" height="68" viewBox="0 0 68 68" fill="none" xmlns="http://www.w3.org/2000/svg">
<rect x="2" y="2" width="64" height="64" rx="32" fill="white"/>
<path d="M38.9437 29.0563C41.6781 31.7906 41.6781 36.2203 38.9437 38.9547C37.5765 40.3219 37.5765 42.5422 38.9437 43.8984C40.3109 45.2656 42.5312 45.2656 43.8984 43.8984C49.3672 38.4297 49.3672 29.5703 43.8984 24.1016L38.9437 29.0563Z" fill="#EA4335"/>
<path d="M43.8875 24.1016C38.4188 18.6328 29.5703 18.6328 24.1016 24.1016C18.6328 29.5703 18.6328 38.4297 24.1016 43.8984L29.0563 38.9547C26.3219 36.2203 26.3219 31.7906 29.0563 29.0563C31.7906 26.3219 36.2203 26.3219 38.9547 29.0563C40.3219 30.4234 42.5422 30.4234 43.9094 29.0563C45.2547 27.6891 45.2547 25.4688 43.8875 24.1016Z" fill="url(#paint0_linear_207_435)"/>
<path d="M43.8875 43.8985L38.9328 38.9547C36.1985 41.6891 31.7688 41.6891 29.0344 38.9547L24.0797 43.8985C29.5703 49.3672 38.4188 49.3672 43.8875 43.8985Z" fill="#FBBC04"/>
<path d="M38.9437 38.9547C40.3109 37.5875 42.5203 37.5875 43.8875 38.9547C45.2547 40.3219 45.2547 42.5422 43.8875 43.9094C42.5203 45.2766 40.3109 45.2766 38.9437 43.9094C37.5765 42.5422 37.5765 40.3219 38.9437 38.9547Z" fill="#EA4335"/>
<path d="M24.1016 38.9547C25.4688 37.5875 27.6781 37.5875 29.0453 38.9547C30.4125 40.3219 30.4125 42.5422 29.0453 43.9094C27.6781 45.2766 25.4688 45.2766 24.1016 43.9094C22.7344 42.5422 22.7344 40.3219 24.1016 38.9547Z" fill="#34A853"/>
<rect x="2" y="2" width="64" height="64" rx="32" stroke="#465155" stroke-width="4"/>
<defs>
<linearGradient id="paint0_linear_207_435" x1="20" y1="31.9492" x2="44.9155" y2="31.9492" gradientUnits="userSpaceOnUse">
<stop stop-color="#246FDB"/>
<stop offset="0.0552" stop-color="#2973DF"/>
<stop offset="0.2781" stop-color="#377DEB"/>
<stop offset="0.5491" stop-color="#3F83F2"/>
<stop offset="1" stop-color="#4285F4"/>
</linearGradient>
</defs>
</svg>
