<svg width="68" height="68" viewBox="0 0 68 68" fill="none" xmlns="http://www.w3.org/2000/svg">
<rect x="2" y="2" width="64" height="64" rx="32" fill="white"/>
<path d="M40.846 33.2322C41.0506 33.2082 41.2461 33.207 41.4255 33.2322C41.5296 32.9933 41.5478 32.5818 41.4541 32.1337C41.3147 31.4673 41.1261 31.0638 40.7374 31.1267C40.3476 31.1895 40.3339 31.6719 40.4734 32.3383C40.5511 32.7132 40.6905 33.0333 40.846 33.2322Z" fill="black"/>
<path d="M37.5025 33.7591C37.7814 33.8814 37.9529 33.9626 38.0192 33.8917C38.0626 33.8471 38.0489 33.7637 37.9826 33.6551C37.8454 33.4311 37.562 33.2024 37.2625 33.0756C36.6487 32.8115 35.9171 32.8995 35.3524 33.3053C35.1661 33.4413 34.9889 33.6311 35.0141 33.7454C35.0221 33.7831 35.0506 33.8106 35.1158 33.8197C35.269 33.8368 35.8062 33.5659 36.4246 33.5282C36.8624 33.5008 37.2236 33.6368 37.5025 33.7591Z" fill="black"/>
<path d="M36.9425 34.0791C36.5802 34.1362 36.379 34.2563 36.251 34.3671C36.1412 34.4632 36.0738 34.5695 36.0738 34.6438C36.0738 34.6792 36.0898 34.6998 36.1012 34.7101C36.1172 34.7249 36.1378 34.7329 36.1607 34.7329C36.243 34.7329 36.4259 34.6598 36.4259 34.6598C36.9311 34.4792 37.2637 34.5009 37.5941 34.5386C37.777 34.5592 37.8627 34.5706 37.9027 34.5077C37.9141 34.4894 37.929 34.4506 37.8924 34.3923C37.809 34.2528 37.4421 34.0196 36.9425 34.0791Z" fill="black"/>
<path d="M39.7166 35.2531C39.9635 35.3743 40.2345 35.3263 40.3225 35.1468C40.4105 34.9673 40.2825 34.7239 40.0367 34.6027C39.7898 34.4815 39.5189 34.5295 39.4309 34.709C39.3417 34.8885 39.4709 35.1319 39.7166 35.2531Z" fill="black"/>
<path d="M41.3009 33.8687C41.1009 33.8653 40.9351 34.0847 40.9306 34.3591C40.926 34.6334 41.0849 34.8586 41.2849 34.862C41.485 34.8654 41.6507 34.646 41.6553 34.3716C41.6598 34.0973 41.501 33.8721 41.3009 33.8687Z" fill="black"/>
<path d="M27.8562 38.8182C27.806 38.7554 27.7248 38.7748 27.6459 38.7931C27.5911 38.8057 27.5282 38.8205 27.4596 38.8194C27.3121 38.8171 27.1876 38.7531 27.1178 38.6456C27.0264 38.5062 27.0321 38.297 27.1327 38.0581C27.1464 38.0261 27.1624 37.9907 27.1796 37.9507C27.3396 37.5906 27.6093 36.9882 27.3076 36.4132C27.0801 35.9812 26.7098 35.7114 26.2651 35.6554C25.8376 35.6017 25.3975 35.7594 25.1175 36.0692C24.6751 36.5573 24.6054 37.2225 24.6911 37.4569C24.722 37.5426 24.7711 37.5666 24.8077 37.5712C24.8831 37.5815 24.994 37.5266 25.0637 37.3391C25.0683 37.3254 25.0752 37.3048 25.0832 37.2785C25.114 37.1791 25.1723 36.9939 25.2672 36.8465C25.3815 36.6681 25.5598 36.5447 25.769 36.5001C25.9816 36.4544 26.1999 36.4955 26.3817 36.6144C26.6915 36.8179 26.8115 37.1974 26.6789 37.5597C26.6103 37.7472 26.4994 38.1061 26.5234 38.401C26.5726 38.9977 26.9395 39.2366 27.2699 39.2629C27.5899 39.2755 27.814 39.0949 27.8711 38.9634C27.9031 38.8857 27.8745 38.8388 27.8562 38.8182Z" fill="black"/>
<path d="M46.3511 37.7278C46.3385 37.6844 46.2596 37.394 46.1499 37.0442C46.0401 36.6945 45.9281 36.4476 45.9281 36.4476C46.3659 35.7914 46.3739 35.205 46.3156 34.8736C46.2539 34.462 46.0824 34.1111 45.7361 33.7488C45.3909 33.3864 44.6845 33.0149 43.6911 32.736C43.578 32.704 43.203 32.6011 43.1699 32.5908C43.1676 32.5691 43.1425 31.3632 43.1196 30.8442C43.1036 30.4693 43.0704 29.8852 42.8898 29.3091C42.6738 28.5295 42.2966 27.8483 41.8268 27.4116C43.1242 26.0674 43.9335 24.5859 43.9323 23.3148C43.9289 20.871 40.9272 20.1314 37.2282 21.6631C37.2248 21.6643 36.4498 21.9935 36.4441 21.9957C36.4407 21.9923 35.0278 20.6058 35.0061 20.5875C30.7905 16.9091 17.6052 31.5655 21.8208 35.125L22.7421 35.9057C22.5032 36.5253 22.4095 37.234 22.4861 37.9964C22.5844 38.976 23.0896 39.9156 23.9092 40.6403C24.6865 41.3296 25.7084 41.7651 26.7006 41.764C28.3409 45.5441 32.089 47.8634 36.4841 47.9937C41.1981 48.1343 45.1554 45.9213 46.814 41.948C46.9226 41.6691 47.3832 40.4129 47.3832 39.3029C47.3832 38.1896 46.7534 37.7278 46.3511 37.7278ZM27.0629 40.7032C26.92 40.7272 26.7737 40.7375 26.6263 40.7341C25.202 40.6963 23.6646 39.4138 23.5114 37.8935C23.3422 36.2132 24.2007 34.9204 25.721 34.6129C25.9027 34.5764 26.1222 34.5546 26.3588 34.5672C27.2104 34.6141 28.4655 35.2679 28.7524 37.1231C29.0073 38.7668 28.6038 40.4403 27.0629 40.7032ZM25.4729 33.6082C24.5265 33.7922 23.692 34.3283 23.1822 35.069C22.877 34.8153 22.3089 34.3226 22.2095 34.1306C21.3956 32.584 23.0976 29.5777 24.2876 27.8803C27.2275 23.6852 31.8318 20.5086 33.9636 21.0847C34.31 21.183 35.4576 22.5136 35.4576 22.5136C35.4576 22.5136 33.3269 23.6955 31.3506 25.3438C28.6895 27.3945 26.6777 30.3744 25.4729 33.6082ZM40.4185 40.0745C40.4494 40.0619 40.4711 40.0265 40.4677 39.9911C40.4631 39.9476 40.4242 39.9168 40.382 39.9213C40.382 39.9213 38.1518 40.2517 36.044 39.4801C36.2738 38.7337 36.8842 39.0035 37.8066 39.0778C39.4698 39.1772 40.9592 38.9337 42.0611 38.6182C43.0156 38.3439 44.2684 37.8044 45.2423 37.0362C45.5703 37.7575 45.6869 38.5508 45.6869 38.5508C45.6869 38.5508 45.9407 38.5051 46.1533 38.6365C46.3545 38.76 46.5008 39.0172 46.4002 39.6802C46.1956 40.9204 45.6686 41.9274 44.7828 42.8533C44.2432 43.434 43.5883 43.9392 42.8396 44.3061C42.4418 44.5153 42.0177 44.6959 41.5707 44.8422C38.2307 45.9327 34.8118 44.7337 33.7099 42.1583C33.6219 41.9651 33.5476 41.7617 33.4893 41.5502C33.0195 39.8528 33.4184 37.817 34.6643 36.5344C34.6643 36.5344 34.6643 36.5344 34.6643 36.5333C34.7409 36.4521 34.8198 36.3561 34.8198 36.2349C34.8198 36.1332 34.7558 36.0269 34.6998 35.9515C34.2643 35.3193 32.7531 34.2414 33.056 32.1553C33.2732 30.6568 34.5843 29.6017 35.8063 29.6646C35.9091 29.6703 36.0131 29.676 36.116 29.6829C36.6453 29.7137 37.1071 29.7823 37.5437 29.8006C38.273 29.8326 38.9291 29.7263 39.7064 29.0782C39.9682 28.8599 40.1785 28.6701 40.534 28.6107C40.5717 28.6038 40.6643 28.5707 40.8506 28.5798C41.0404 28.5901 41.221 28.6415 41.3833 28.7501C42.0063 29.1651 42.0943 30.1687 42.1263 30.9025C42.1446 31.322 42.1949 32.3359 42.2132 32.6274C42.2532 33.2927 42.428 33.3876 42.7813 33.5042C42.9801 33.5693 43.1653 33.6185 43.4374 33.695C44.2615 33.9271 44.7508 34.1614 45.0594 34.4632C45.2434 34.6518 45.3292 34.8518 45.3554 35.0427C45.4526 35.7514 44.8045 36.6282 43.0899 37.4237C41.2153 38.2936 38.9405 38.5142 37.3688 38.3393C37.2488 38.3256 36.8202 38.2776 36.8179 38.2776C35.5605 38.1084 34.8438 39.7327 35.5982 40.8461C36.084 41.5639 37.4088 42.0303 38.7337 42.0303C41.7719 42.0303 44.1072 40.7329 44.9759 39.6127C45.0022 39.5796 45.0045 39.575 45.0457 39.5133C45.088 39.4493 45.0537 39.4138 44.9999 39.4493C44.2901 39.9351 41.1375 41.8623 37.7666 41.2827C37.7666 41.2827 37.3574 41.2153 36.9825 41.0701C36.6853 40.9547 36.0634 40.6689 35.988 40.0299C38.7051 40.8701 40.4185 40.0745 40.4185 40.0745ZM36.108 39.5658C36.108 39.5658 36.1092 39.5658 36.108 39.5658C36.1092 39.567 36.1092 39.567 36.1092 39.5681C36.1092 39.567 36.1092 39.5658 36.108 39.5658ZM30.9025 27.8631C31.9473 26.6549 33.2344 25.6056 34.3866 25.0157C34.4266 24.9952 34.4689 25.0386 34.4471 25.0775C34.3557 25.2432 34.1797 25.5976 34.1237 25.8673C34.1145 25.9096 34.1602 25.9405 34.1957 25.9165C34.9124 25.4272 36.1606 24.9037 37.2545 24.8363C37.3014 24.8328 37.3242 24.8934 37.2865 24.922C37.1196 25.05 36.9379 25.2261 36.8053 25.4044C36.7824 25.4352 36.8042 25.4787 36.8419 25.4787C37.61 25.4844 38.6936 25.753 39.3989 26.1485C39.4469 26.1748 39.4126 26.2674 39.3589 26.256C38.2913 26.0113 36.5424 25.825 34.7261 26.2685C33.1052 26.664 31.8672 27.2744 30.9642 27.9317C30.9208 27.966 30.8659 27.9066 30.9025 27.8631Z" fill="black"/>
<rect x="2" y="2" width="64" height="64" rx="32" stroke="#465155" stroke-width="4"/>
</svg>
