<svg xmlns="http://www.w3.org/2000/svg" xmlns:xlink="http://www.w3.org/1999/xlink" width="37.469" height="48" viewBox="0 0 37.469 48">
  <defs>
    <style>
      .cls-1 {
        fill-rule: evenodd;
        fill: url(#linear-gradient);
      }
    </style>
    <linearGradient id="linear-gradient" x1="614.122" y1="5337.97" x2="586.409" y2="5289.97" gradientUnits="userSpaceOnUse">
      <stop offset="-0.25" stop-color="#c58b29"/>
      <stop offset="-0.227" stop-color="#c58b29"/>
      <stop offset="1.25" stop-color="#ffdf85"/>
    </linearGradient>
  </defs>
  <path id="_27-medicine_-_lab" data-name="27-medicine - lab" class="cls-1" d="M618.9,5293.78a2.978,2.978,0,0,1-3.652,2.13,3.018,3.018,0,0,1-2.108-3.69,2.982,2.982,0,0,1,3.651-2.14A3.026,3.026,0,0,1,618.9,5293.78Zm-15.687,2.12a3.019,3.019,0,1,1,3.709-2.13A3.014,3.014,0,0,1,603.213,5295.9Zm12.986,7.85a1.5,1.5,0,0,1-1.826,1.05l-1.44-.38-3.087,11.46-2.879-.76,3.086-11.47-8.639-2.31-3.087,11.47-2.879-.77,3.086-11.46-1.44-.39a1.486,1.486,0,1,1,.772-2.87l17.278,4.61A1.487,1.487,0,0,1,616.2,5303.75Zm-6.329,12.14s1.961,13.05,3.361,19.36c0.718,3.24-.778,2.84-2.063,2.5-6.567-1.75-20.115-5.37-27.066-7.22-3.186-.85-3.186-0.85-1.161-3.06,4.279-4.65,12.53-15.42,12.53-15.42Zm-13.248-.46c-0.532.69-1.215,1.56-1.984,2.54l13.084,3.49c-0.2-1.24-.372-2.34-0.5-3.2ZM586.4,5328.07l23.6,6.29c-0.581-2.84-1.21-6.44-1.749-9.68l-15.618-4.17C590.589,5323.07,588.3,5325.89,586.4,5328.07Z" transform="translate(-581.531 -5289.97)"/>
</svg>
